<svg width="40" height="35" viewBox="0 0 40 35" fill="none" xmlns="http://www.w3.org/2000/svg">
<path d="M19.6665 4.69999C19.9309 4.34195 20.1664 3.98685 20.4384 3.66198C21.701 2.1526 23.3153 1.16874 25.1785 0.597054C27.3678 -0.0749464 29.5878 -0.241582 31.8087 0.430837C34.4547 1.23212 36.4862 2.86615 37.8122 5.27083C39.9503 9.14753 39.8802 13.0578 37.7165 16.9202C37.1666 17.9016 36.3649 18.6781 35.5599 19.4496C30.5289 24.269 25.5021 29.0926 20.4728 33.9141C19.9502 34.4149 19.4088 34.4195 18.9017 33.9326C13.6831 28.9251 8.46665 23.9152 3.24427 18.911C1.65599 17.3895 0.690169 15.5313 0.258259 13.3949C-0.26977 10.7832 -0.00575549 8.24929 1.21358 5.86518C2.77249 2.8183 5.19983 0.841761 8.59593 0.183192C10.5292 -0.191633 12.4428 0.0329262 14.3073 0.636509C16.1054 1.21868 17.6669 2.1803 18.8988 3.63637C19.0386 3.80175 19.1695 3.9751 19.2959 4.15097C19.4222 4.32642 19.5381 4.50901 19.6665 4.69999ZM22.7365 14.5055C22.7365 14.401 22.7365 14.3191 22.7365 14.2368C22.7365 12.8798 22.7369 11.5232 22.7365 10.1662C22.7365 9.68269 22.5619 9.50724 22.0817 9.50682C20.48 9.5064 18.8787 9.50682 17.2769 9.50682C16.7917 9.50682 16.6175 9.67975 16.6175 10.1604C16.6171 11.5241 16.6175 12.8878 16.6175 14.252C16.6175 14.3325 16.6175 14.4127 16.6175 14.5055C16.5088 14.5055 16.4328 14.5055 16.3569 14.5055C14.9931 14.5055 13.6294 14.5055 12.2653 14.5055C11.7981 14.5055 11.6193 14.6839 11.6193 15.1506C11.6189 16.7452 11.6189 18.3398 11.6189 19.9344C11.6189 20.4565 11.7826 20.619 12.3123 20.619C13.655 20.6194 14.9978 20.619 16.3409 20.619C16.4282 20.619 16.516 20.6269 16.6175 20.632V20.8838C16.6175 22.2337 16.6175 23.5836 16.6175 24.9334C16.6175 25.4455 16.7863 25.6176 17.2925 25.618C18.8799 25.6189 20.4678 25.6189 22.0552 25.618C22.5665 25.618 22.7369 25.4485 22.7369 24.9406C22.7377 23.5978 22.7369 22.2551 22.7369 20.9119C22.7369 20.8229 22.7369 20.734 22.7369 20.6185C22.8578 20.6185 22.9535 20.6185 23.0492 20.6185C24.399 20.6185 25.7489 20.6198 27.0988 20.6177C27.5563 20.6169 27.736 20.436 27.736 19.9826C27.7368 18.3671 27.7368 16.7515 27.736 15.1359C27.736 14.6847 27.5521 14.5051 27.0959 14.5046C25.725 14.5046 24.3541 14.5046 22.9833 14.5046C22.9086 14.5046 22.8334 14.5046 22.7369 14.5046L22.7365 14.5055Z" fill="white"/>
</svg>
