<svg width="32" height="32" viewBox="0 0 32 32" fill="none" xmlns="http://www.w3.org/2000/svg">
<path d="M27.7318 8.64457C25.2304 8.15924 22.6544 7.89791 19.8918 7.71124C18.3238 5.47124 17.2411 2.8579 15.2624 0.9539C14.1051 -0.203433 12.3131 -0.427433 11.2678 0.9539C10.1478 2.48457 9.84911 4.8739 9.51311 6.70324C9.32645 7.86057 9.25178 9.0179 9.21445 10.1379C9.13978 10.1379 9.02778 10.1379 8.95311 10.2126C6.86245 11.2952 4.77178 12.0046 2.79311 13.3112C1.33711 14.2819 -0.454888 15.1406 0.105112 16.9699C0.478445 18.1646 1.89711 18.9112 2.94245 19.3966C4.65978 20.2179 6.11578 20.8526 7.87045 21.5246C7.75845 23.7272 7.53445 25.9299 7.72111 28.0206C7.83311 29.1032 8.20645 31.6046 9.66245 31.8286C10.8198 31.9779 11.9771 31.0072 13.0971 29.9619C14.8144 28.2819 17.7264 24.4366 17.8384 24.1379C19.8171 25.0339 22.1318 25.7806 24.8198 26.6392C26.0891 27.0499 28.9264 27.8339 29.6731 26.4152C30.2704 25.2206 29.4864 23.6526 28.9638 22.5699C27.9931 20.5912 26.8731 18.5752 25.7531 16.6712C27.2091 15.7379 28.6651 14.8046 30.0464 13.7592C31.0171 13.0126 32.0251 11.8179 31.3904 10.5486C30.7558 9.27923 28.9638 8.98056 27.7318 8.71923V8.64457Z" fill="url(#paint0_linear_1_31)"/>
<path d="M27.7317 8.64531C27.3584 8.57064 27.0224 8.49596 26.649 8.45863C28.4037 9.09329 29.1877 10.1386 29.113 11.296C29.001 12.9013 26.7237 14.3946 25.305 15.216C23.4384 16.336 25.4917 17.3813 25.5664 19.5466C25.753 23.6906 20.6384 23.952 18.249 22.608C16.681 21.712 14.553 26.1546 11.2304 24.848C10.2597 24.4373 9.3637 23.2426 9.2517 22.2346C8.99037 19.9573 7.72104 20.1813 6.07837 19.3226C3.5397 18.016 1.0757 15.6266 3.50237 14.32C5.85437 13.0506 8.0197 12.1546 9.4757 11.5573C10.5584 11.1093 9.96104 8.9813 10.3344 5.9573C10.409 5.24797 10.6704 2.78396 10.6704 2.07463C10.0357 3.53063 9.77437 5.2853 9.55037 6.7413C9.3637 7.89863 9.28904 9.05597 9.2517 10.176C9.17704 10.176 9.06504 10.176 8.99037 10.2506C6.8997 11.3333 4.80904 12.0426 2.83037 13.3493C1.37437 14.32 -0.417629 15.1786 0.142371 17.008C0.515704 18.2026 1.93437 18.9493 2.9797 19.4346C4.69704 20.256 6.15304 20.8906 7.9077 21.5626C7.7957 23.7653 7.5717 25.968 7.75837 28.0586C7.87037 29.1413 8.2437 31.6426 9.6997 31.8666C10.857 32.016 12.0144 31.0453 13.1344 30C14.8517 28.32 17.7637 24.4746 17.8757 24.176C19.8544 25.072 22.169 25.8186 24.857 26.6773C26.1264 27.088 28.9637 27.872 29.7104 26.4533C30.3077 25.2586 29.5237 23.6906 29.001 22.608C28.0304 20.6293 26.9104 18.6133 25.7904 16.7093C27.2464 15.776 28.7024 14.8426 30.0837 13.7973C31.0544 13.0506 32.0624 11.856 31.4277 10.5866C30.793 9.31729 29.001 9.01863 27.769 8.7573L27.7317 8.64531Z" fill="url(#paint1_radial_1_31)" style="mix-blend-mode:multiply"/>
<path d="M27.7318 8.64457C25.2304 8.15924 22.6544 7.89791 19.8918 7.71124C18.3238 5.47124 17.2411 2.8579 15.2624 0.9539C14.1051 -0.203433 12.3131 -0.427433 11.2678 0.9539C10.1478 2.48457 9.84911 4.8739 9.51311 6.70324C9.32645 7.86057 9.25178 9.0179 9.21445 10.1379C9.13978 10.1379 9.02778 10.1379 8.95311 10.2126C6.86245 11.2952 4.77178 12.0046 2.79311 13.3112C1.33711 14.2819 -0.454888 15.1406 0.105112 16.9699C0.478445 18.1646 1.89711 18.9112 2.94245 19.3966C4.65978 20.2179 6.11578 20.8526 7.87045 21.5246C7.75845 23.7272 7.53445 25.9299 7.72111 28.0206C7.83311 29.1032 8.20645 31.6046 9.66245 31.8286C10.8198 31.9779 11.9771 31.0072 13.0971 29.9619C14.8144 28.2819 17.7264 24.4366 17.8384 24.1379C19.8171 25.0339 22.1318 25.7806 24.8198 26.6392C26.0891 27.0499 28.9264 27.8339 29.6731 26.4152C30.2704 25.2206 29.4864 23.6526 28.9638 22.5699C27.9931 20.5912 26.8731 18.5752 25.7531 16.6712C27.2091 15.7379 28.6651 14.8046 30.0464 13.7592C31.0171 13.0126 32.0251 11.8179 31.3904 10.5486C30.7558 9.27923 28.9638 8.98056 27.7318 8.71923V8.64457ZM30.0464 11.8552C29.7104 12.4526 28.8518 12.9379 28.2918 13.3112C27.0598 14.1326 25.8278 14.9912 24.5211 15.7379C23.9984 16.0366 24.1478 16.7086 24.5211 16.9699C25.3798 18.4632 26.1264 19.9939 26.9851 21.4872C27.5824 22.5326 28.2171 23.6152 28.5158 24.7726C29.0384 26.9752 25.1931 25.3699 24.2598 25.0712C22.0944 24.3246 20.3771 23.8392 18.2864 22.9432C17.8384 22.7939 17.5024 22.7939 17.4278 22.9059C16.5318 24.0632 14.2544 26.7886 13.6571 27.5726C12.8358 28.5806 11.9398 29.5512 10.9318 30.3726C8.99044 31.9406 9.02778 27.5726 8.99045 26.6392C8.99045 24.9219 9.13978 23.2046 9.13978 21.4872C9.13978 20.8899 9.28911 20.5912 8.80378 20.4046C6.75045 19.4712 4.47311 18.6499 2.53178 17.4926C1.85978 17.1192 1.15045 16.2232 1.78511 15.4766C2.41978 14.7299 7.72111 11.8926 8.84111 11.5192C9.69978 11.2206 10.2598 11.1086 10.2598 10.9966C10.4838 8.56989 10.5584 7.52457 10.9318 5.84457C11.1184 4.98591 11.5291 1.02857 13.2464 1.02857C14.2918 1.02857 15.4118 2.7459 15.9344 3.5299C17.0544 5.24723 17.9878 6.85257 19.0704 8.6819C19.1824 8.83123 20.0038 8.83123 21.1238 8.94323C23.6251 9.1299 26.2384 9.27923 28.6651 9.95123C29.2998 10.1379 30.7184 10.7726 30.1211 11.8179L30.0464 11.8552Z" fill="#C76B08"/>
<path d="M1.85902 16.522C1.85902 16.522 1.37368 16.1486 2.94168 15.178C5.21902 13.7966 7.45902 13.0126 8.87769 12.5273C9.81102 12.1913 10.7817 11.8553 10.7817 11.8553C10.8563 10.3246 10.819 8.64465 10.819 8.64465L10.4084 11.1086C10.4084 11.1086 8.39235 11.818 3.38968 14.4313C2.04568 15.1406 1.29902 16.1113 1.85902 16.4846V16.522Z" fill="#FFF3DF"/>
<path d="M10.932 8.38243C10.932 8.38243 11.0813 4.27577 13.4707 4.16377C15.86 4.05177 17.4653 6.8891 18.5107 8.5691C17.5027 7.0011 17.2787 6.36643 15.412 3.19309C13.62 0.243761 12.1267 1.02777 11.492 3.97711C10.8573 6.92644 10.932 8.38243 10.932 8.38243Z" fill="#FFF3DF"/>
<path d="M17.726 7.48681C17.726 7.48681 18.5847 9.12948 18.9953 10.0628C18.9953 10.0628 26.7233 9.98815 28.1047 10.4362C29.486 10.8842 29.934 11.3695 29.8593 11.8921C29.8593 11.8921 30.5313 10.9961 28.5153 10.2121C26.4993 9.42815 18.6967 9.05481 18.6967 9.05481L17.726 7.48681Z" fill="#FFF3DF"/>
<path d="M5.29457 18.5754C5.29457 18.5754 7.53458 19.3968 10.1479 19.7701C10.1479 19.7701 8.69191 28.5808 9.77457 30.2608C9.77457 30.2608 8.91591 29.7754 9.02791 26.9381C9.13991 24.1008 9.25191 20.2928 9.25191 20.2928C9.25191 20.2928 6.52657 19.1728 5.25724 18.5754H5.29457Z" fill="#FFF3DF"/>
<defs>
<linearGradient id="paint0_linear_1_31" x1="19.978" y1="30.5922" x2="14.8121" y2="9.61558" gradientUnits="userSpaceOnUse">
<stop offset="0.11" stop-color="#FFFD62"/>
<stop offset="0.49" stop-color="#FFFC0A"/>
<stop offset="0.93" stop-color="#FDBE1B"/>
</linearGradient>
<radialGradient id="paint1_radial_1_31" cx="0" cy="0" r="1" gradientUnits="userSpaceOnUse" gradientTransform="translate(15.1996 8.79992) rotate(-26.31) scale(22.9227)">
<stop offset="0.41" stop-color="#FFFD50"/>
<stop offset="0.85" stop-color="#ED8C37"/>
</radialGradient>
</defs>
</svg>
