<svg width="74" height="39" viewBox="0 0 74 39" fill="none" xmlns="http://www.w3.org/2000/svg">
<path d="M70.441 13.0034C67.8276 11.8461 65.1396 10.9874 62.1156 10.0914C60.921 7.2914 60.3983 4.19273 58.7556 1.61673C57.785 0.0860609 55.881 -0.623272 54.425 0.683394C52.8196 2.06473 51.9236 4.56606 51.177 6.47006C50.6916 7.66472 50.3183 8.89672 50.0196 10.1287C49.9076 10.1287 49.833 10.1287 49.721 10.1287C47.1823 10.7634 44.7556 11.0621 42.2543 11.9954C40.425 12.6674 38.2596 13.1901 38.4463 15.2807C38.5583 16.6621 39.9396 17.8194 40.9476 18.6034C42.6276 19.9101 44.009 20.9554 45.7636 22.1127C45.0916 24.4647 44.3076 26.8167 44.009 29.1314C43.8596 30.3634 43.673 33.1634 45.2036 33.7234C46.4356 34.1714 47.929 33.3874 49.385 32.5287C51.6623 31.1474 55.7316 27.6381 55.9183 27.3767C57.8223 28.7954 60.2116 30.1767 62.8996 31.7447C64.169 32.4914 67.0436 34.0594 68.201 32.6781C69.1716 31.5207 68.649 29.6167 68.3503 28.3474C67.7903 25.9581 67.0436 23.4941 66.297 21.1794C68.089 20.5074 69.9183 19.8354 71.673 19.0514C72.905 18.4914 74.2863 17.4087 73.913 15.8781C73.5396 14.3474 71.673 13.5634 70.3663 13.0034H70.441Z" fill="url(#paint0_linear_1_30)"/>
<path d="M70.4411 13.0031C70.0677 12.8538 69.6944 12.7045 69.3211 12.5551C71.0757 13.6378 71.6731 15.0191 71.3371 16.2511C70.8144 17.9684 67.9771 19.0138 66.2597 19.6111C63.9451 20.3578 65.9237 22.0005 65.5131 24.3525C64.7291 28.9071 59.0917 27.9738 56.8517 25.9204C55.3584 24.5764 51.9611 28.8698 48.6757 26.6298C47.7051 25.9951 47.0331 24.4644 47.1451 23.3071C47.4064 20.7684 45.9877 20.7311 44.4197 19.3871C41.9931 17.3338 39.8651 14.1605 42.8144 13.3391C45.6517 12.5551 48.2277 12.0698 49.9451 11.7711C51.2144 11.5471 51.1024 9.12045 52.2224 5.87245C52.4837 5.12579 53.3424 2.54978 53.5291 1.72845C52.4837 3.14712 51.8117 5.01378 51.1771 6.50711C50.6917 7.70178 50.3184 8.93379 50.0197 10.1658C49.9077 10.1658 49.8331 10.1658 49.7211 10.1658C47.1824 10.8005 44.7557 11.0991 42.2544 12.0325C40.4251 12.7045 38.2597 13.2271 38.4464 15.3178C38.5584 16.6991 39.9397 17.8564 40.9477 18.6404C42.6277 19.9471 44.0091 20.9925 45.7637 22.1498C45.0917 24.5018 44.3077 26.8538 44.0091 29.1684C43.8597 30.4004 43.6731 33.2005 45.2037 33.7605C46.4357 34.2085 47.9291 33.4245 49.3851 32.5658C51.6624 31.1845 55.7317 27.6751 55.9184 27.4138C57.8224 28.8325 60.2117 30.2138 62.8997 31.7818C64.1691 32.5284 67.0437 34.0964 68.2011 32.7151C69.1717 31.5578 68.6491 29.6538 68.3504 28.3844C67.7904 25.9951 67.0437 23.5311 66.2971 21.2165C68.0891 20.5445 69.9184 19.8725 71.6731 19.0885C72.9051 18.5285 74.2864 17.4458 73.9131 15.9151C73.5397 14.3844 71.6731 13.6004 70.3664 13.0404L70.4411 13.0031Z" fill="url(#paint1_radial_1_30)" style="mix-blend-mode:multiply"/>
<path d="M70.441 13.0034C67.8276 11.8461 65.1396 10.9874 62.1156 10.0914C60.921 7.2914 60.3983 4.19273 58.7556 1.61673C57.785 0.0860609 55.881 -0.623272 54.425 0.683394C52.8196 2.06473 51.9236 4.56606 51.177 6.47006C50.6916 7.66472 50.3183 8.89672 50.0196 10.1287C49.9076 10.1287 49.833 10.1287 49.721 10.1287C47.1823 10.7634 44.7556 11.0621 42.2543 11.9954C40.425 12.6674 38.2596 13.1901 38.4463 15.2807C38.5583 16.6621 39.9396 17.8194 40.9476 18.6034C42.6276 19.9101 44.009 20.9554 45.7636 22.1127C45.0916 24.4647 44.3076 26.8167 44.009 29.1314C43.8596 30.3634 43.673 33.1634 45.2036 33.7234C46.4356 34.1714 47.929 33.3874 49.385 32.5287C51.6623 31.1474 55.7316 27.6381 55.9183 27.3767C57.8223 28.7954 60.2116 30.1767 62.8996 31.7447C64.169 32.4914 67.0436 34.0594 68.201 32.6781C69.1716 31.5207 68.649 29.6167 68.3503 28.3474C67.7903 25.9581 67.0436 23.4941 66.297 21.1794C68.089 20.5074 69.9183 19.8354 71.673 19.0514C72.905 18.4914 74.2863 17.4087 73.913 15.8781C73.5396 14.3474 71.673 13.5634 70.3663 13.0034H70.441ZM72.1583 17.0727C71.673 17.6327 70.5903 17.9687 69.881 18.2301C68.313 18.8274 66.7823 19.4247 65.2143 19.9474C64.5796 20.1714 64.5423 20.9181 64.9156 21.2914C65.4756 23.1207 65.9236 24.9874 66.4836 26.8167C66.8943 28.0861 67.305 29.3927 67.3423 30.7367C67.3796 33.2754 63.609 30.5874 62.6756 30.0274C60.5103 28.6834 58.7556 27.7874 56.7023 26.2567C56.2543 25.9954 55.9183 25.8834 55.769 25.9954C54.4996 27.0407 51.401 29.4674 50.5423 30.1394C49.4223 31.0354 48.2276 31.8941 46.921 32.5287C44.4196 33.7607 45.5023 29.0194 45.7263 28.0114C46.0996 26.1447 46.7343 24.3154 47.145 22.4861C47.2943 21.8141 47.5183 21.5527 47.033 21.2167C45.017 19.7234 42.7396 18.2674 40.9103 16.5127C40.313 15.9154 39.7156 14.7954 40.5743 14.1607C41.3956 13.5261 47.8916 11.6967 49.161 11.5474C50.169 11.4354 50.8036 11.4354 50.841 11.3234C51.6996 8.74739 52.0356 7.62739 52.7823 5.91005C53.193 5.01405 54.5743 0.795386 56.441 1.24339C57.5983 1.50472 58.345 3.63272 58.7556 4.64072C59.577 6.76872 60.2116 8.7474 60.921 11.0247C60.9956 11.2114 61.8916 11.3981 63.0863 11.7714C65.7743 12.5927 68.5743 13.3767 71.0383 14.6834C71.673 15.0194 73.0543 16.0647 72.1583 17.0727Z" fill="#C76B08"/>
<path d="M40.4252 15.3187C40.4252 15.3187 39.9772 14.796 41.9185 14.124C44.7558 13.1533 47.3318 12.8547 49.0118 12.668C50.0945 12.556 51.2518 12.4067 51.2518 12.4067C51.6998 10.764 52.0732 8.93468 52.0732 8.93468L51.0278 11.5107C51.0278 11.5107 48.6758 11.8093 42.5905 13.4147C40.9852 13.8627 39.9398 14.7587 40.4252 15.2813V15.3187Z" fill="#FFF3DF"/>
<path d="M52.2227 8.67277C52.2227 8.67277 53.38 4.23011 55.9934 4.67811C58.644 5.12611 59.652 8.59811 60.3987 10.6888C59.6894 8.74744 59.6147 8.00077 58.308 4.1181C57.076 0.459434 55.2467 0.982106 53.8654 4.00611C52.484 7.06744 52.1854 8.67277 52.1854 8.67277H52.2227Z" fill="#FFF3DF"/>
<path d="M59.8381 9.30851C59.8381 9.30851 60.3608 11.2872 60.6221 12.4072C60.6221 12.4072 69.0594 14.1992 70.4407 14.9832C71.8221 15.8045 72.1581 16.4392 71.9714 16.9992C71.9714 16.9992 72.9047 16.1779 70.9261 14.8712C68.9474 13.5645 60.5101 11.2498 60.5101 11.2498L59.8381 9.30851Z" fill="#FFF3DF"/>
<path d="M43.636 18.3789C43.636 18.3789 45.876 19.8349 48.6387 20.8803C48.6387 20.8803 44.9054 30.0643 45.6894 32.1549C45.6894 32.1549 44.868 31.4083 45.6894 28.3843C46.5107 25.3229 47.556 21.2163 47.556 21.2163C47.556 21.2163 44.868 19.3496 43.5987 18.3789H43.636Z" fill="#FFF3DF"/>
<path d="M27.7318 15.7676C25.2304 15.2823 22.6544 15.021 19.8918 14.8343C18.3238 12.5943 17.2411 9.98095 15.2624 8.07695C14.1051 6.91961 12.3131 6.69561 11.2678 8.07695C10.1478 9.60761 9.84911 11.997 9.51311 13.8263C9.32645 14.9836 9.25178 16.1409 9.21445 17.2609C9.13978 17.2609 9.02778 17.2609 8.95311 17.3356C6.86245 18.4183 4.77178 19.1276 2.79311 20.4343C1.33711 21.405 -0.454888 22.2636 0.105112 24.093C0.478445 25.2876 1.89711 26.0343 2.94245 26.5196C4.65978 27.3409 6.11578 27.9756 7.87045 28.6476C7.75845 30.8503 7.53445 33.0529 7.72111 35.1436C7.83311 36.2263 8.20645 38.7276 9.66245 38.9516C10.8198 39.1009 11.9771 38.1303 13.0971 37.0849C14.8144 35.4049 17.7264 31.5596 17.8384 31.2609C19.8171 32.1569 22.1318 32.9036 24.8198 33.7623C26.0891 34.173 28.9264 34.9569 29.6731 33.5383C30.2704 32.3436 29.4864 30.7756 28.9638 29.693C27.9931 27.7143 26.8731 25.6983 25.7531 23.7943C27.2091 22.8609 28.6651 21.9276 30.0464 20.8823C31.0171 20.1356 32.0251 18.9409 31.3904 17.6716C30.7558 16.4023 28.9638 16.1036 27.7318 15.8423V15.7676Z" fill="url(#paint2_linear_1_30)"/>
<path d="M27.7317 15.7684C27.3584 15.6937 27.0224 15.619 26.649 15.5817C28.4037 16.2163 29.1877 17.2617 29.113 18.419C29.001 20.0243 26.7237 21.5177 25.305 22.339C23.4384 23.459 25.4917 24.5043 25.5664 26.6697C25.753 30.8137 20.6384 31.075 18.249 29.731C16.681 28.835 14.553 33.2777 11.2304 31.971C10.2597 31.5603 9.3637 30.3657 9.2517 29.3577C8.99037 27.0803 7.72104 27.3043 6.07837 26.4457C3.5397 25.139 1.0757 22.7497 3.50237 21.443C5.85437 20.1737 8.0197 19.2777 9.4757 18.6803C10.5584 18.2323 9.96104 16.1043 10.3344 13.0803C10.409 12.371 10.6704 9.90701 10.6704 9.19768C10.0357 10.6537 9.77437 12.4083 9.55037 13.8643C9.3637 15.0217 9.28904 16.179 9.2517 17.299C9.17704 17.299 9.06504 17.299 8.99037 17.3737C6.8997 18.4563 4.80904 19.1657 2.83037 20.4723C1.37437 21.443 -0.417629 22.3017 0.142371 24.131C0.515704 25.3257 1.93437 26.0724 2.9797 26.5577C4.69704 27.379 6.15304 28.0137 7.9077 28.6857C7.7957 30.8883 7.5717 33.091 7.75837 35.1817C7.87037 36.2643 8.2437 38.7657 9.6997 38.9897C10.857 39.139 12.0144 38.1683 13.1344 37.123C14.8517 35.443 17.7637 31.5977 17.8757 31.299C19.8544 32.195 22.169 32.9417 24.857 33.8003C26.1264 34.211 28.9637 34.995 29.7104 33.5763C30.3077 32.3817 29.5237 30.8137 29.001 29.731C28.0304 27.7523 26.9104 25.7364 25.7904 23.8324C27.2464 22.899 28.7024 21.9657 30.0837 20.9203C31.0544 20.1737 32.0624 18.979 31.4277 17.7097C30.793 16.4403 29.001 16.1417 27.769 15.8803L27.7317 15.7684Z" fill="url(#paint3_radial_1_30)" style="mix-blend-mode:multiply"/>
<path d="M27.7318 15.7676C25.2304 15.2823 22.6544 15.021 19.8918 14.8343C18.3238 12.5943 17.2411 9.98095 15.2624 8.07695C14.1051 6.91961 12.3131 6.69561 11.2678 8.07695C10.1478 9.60761 9.84911 11.997 9.51311 13.8263C9.32645 14.9836 9.25178 16.1409 9.21445 17.2609C9.13978 17.2609 9.02778 17.2609 8.95311 17.3356C6.86245 18.4183 4.77178 19.1276 2.79311 20.4343C1.33711 21.405 -0.454888 22.2636 0.105112 24.093C0.478445 25.2876 1.89711 26.0343 2.94245 26.5196C4.65978 27.3409 6.11578 27.9756 7.87045 28.6476C7.75845 30.8503 7.53445 33.0529 7.72111 35.1436C7.83311 36.2263 8.20645 38.7276 9.66245 38.9516C10.8198 39.1009 11.9771 38.1303 13.0971 37.0849C14.8144 35.4049 17.7264 31.5596 17.8384 31.2609C19.8171 32.1569 22.1318 32.9036 24.8198 33.7623C26.0891 34.173 28.9264 34.9569 29.6731 33.5383C30.2704 32.3436 29.4864 30.7756 28.9638 29.693C27.9931 27.7143 26.8731 25.6983 25.7531 23.7943C27.2091 22.8609 28.6651 21.9276 30.0464 20.8823C31.0171 20.1356 32.0251 18.9409 31.3904 17.6716C30.7558 16.4023 28.9638 16.1036 27.7318 15.8423V15.7676ZM30.0464 18.9783C29.7104 19.5756 28.8518 20.061 28.2918 20.4343C27.0598 21.2556 25.8278 22.1143 24.5211 22.8609C23.9984 23.1596 24.1478 23.8316 24.5211 24.093C25.3798 25.5863 26.1264 27.1169 26.9851 28.6103C27.5824 29.6556 28.2171 30.7383 28.5158 31.8956C29.0384 34.0983 25.1931 32.4929 24.2598 32.1943C22.0944 31.4476 20.3771 30.9623 18.2864 30.0663C17.8384 29.9169 17.5024 29.917 17.4278 30.029C16.5318 31.1863 14.2544 33.9116 13.6571 34.6956C12.8358 35.7036 11.9398 36.6743 10.9318 37.4956C8.99044 39.0636 9.02778 34.6956 8.99045 33.7623C8.99045 32.045 9.13978 30.3276 9.13978 28.6103C9.13978 28.0129 9.28911 27.7143 8.80378 27.5276C6.75045 26.5943 4.47311 25.7729 2.53178 24.6156C1.85978 24.2423 1.15045 23.3463 1.78511 22.5996C2.41978 21.8529 7.72111 19.0156 8.84111 18.6423C9.69978 18.3436 10.2598 18.2316 10.2598 18.1196C10.4838 15.6929 10.5584 14.6476 10.9318 12.9676C11.1184 12.109 11.5291 8.15162 13.2464 8.15162C14.2918 8.15162 15.4118 9.86894 15.9344 10.6529C17.0544 12.3703 17.9878 13.9756 19.0704 15.8049C19.1824 15.9543 20.0038 15.9543 21.1238 16.0663C23.6251 16.2529 26.2384 16.4023 28.6651 17.0743C29.2998 17.2609 30.7184 17.8956 30.1211 18.9409L30.0464 18.9783Z" fill="#C76B08"/>
<path d="M1.85902 23.645C1.85902 23.645 1.37368 23.2717 2.94168 22.301C5.21902 20.9197 7.45902 20.1357 8.87769 19.6503C9.81102 19.3143 10.7817 18.9783 10.7817 18.9783C10.8563 17.4477 10.819 15.7677 10.819 15.7677L10.4084 18.2317C10.4084 18.2317 8.39235 18.941 3.38968 21.5544C2.04568 22.2637 1.29902 23.2344 1.85902 23.6077V23.645Z" fill="#FFF3DF"/>
<path d="M10.932 15.5055C10.932 15.5055 11.0813 11.3988 13.4707 11.2868C15.86 11.1748 17.4653 14.0122 18.5107 15.6922C17.5027 14.1242 17.2787 13.4895 15.412 10.3161C13.62 7.36681 12.1267 8.15082 11.492 11.1002C10.8573 14.0495 10.932 15.5055 10.932 15.5055Z" fill="#FFF3DF"/>
<path d="M17.726 14.6099C17.726 14.6099 18.5847 16.2525 18.9953 17.1859C18.9953 17.1859 26.7233 17.1112 28.1047 17.5592C29.486 18.0072 29.934 18.4925 29.8593 19.0152C29.8593 19.0152 30.5313 18.1192 28.5153 17.3352C26.4993 16.5512 18.6967 16.1779 18.6967 16.1779L17.726 14.6099Z" fill="#FFF3DF"/>
<path d="M5.29457 25.6985C5.29457 25.6985 7.53458 26.5198 10.1479 26.8931C10.1479 26.8931 8.69191 35.7038 9.77457 37.3838C9.77457 37.3838 8.91591 36.8985 9.02791 34.0611C9.13991 31.2238 9.25191 27.4158 9.25191 27.4158C9.25191 27.4158 6.52657 26.2958 5.25724 25.6985H5.29457Z" fill="#FFF3DF"/>
<defs>
<linearGradient id="paint0_linear_1_30" x1="56.681" y1="34.9342" x2="56.0996" y2="10.9" gradientUnits="userSpaceOnUse">
<stop offset="0.11" stop-color="#FFFD62"/>
<stop offset="0.49" stop-color="#FFFC0A"/>
<stop offset="0.93" stop-color="#FDBE1B"/>
</linearGradient>
<radialGradient id="paint1_radial_1_30" cx="0" cy="0" r="1" gradientUnits="userSpaceOnUse" gradientTransform="translate(56.7554 10.1242) rotate(-13.76) scale(25.4987 25.4987)">
<stop offset="0.41" stop-color="#FFFD50"/>
<stop offset="0.85" stop-color="#ED8C37"/>
</radialGradient>
<linearGradient id="paint2_linear_1_30" x1="19.978" y1="37.7153" x2="14.8121" y2="16.7386" gradientUnits="userSpaceOnUse">
<stop offset="0.11" stop-color="#FFFD62"/>
<stop offset="0.49" stop-color="#FFFC0A"/>
<stop offset="0.93" stop-color="#FDBE1B"/>
</linearGradient>
<radialGradient id="paint3_radial_1_30" cx="0" cy="0" r="1" gradientUnits="userSpaceOnUse" gradientTransform="translate(15.1996 15.923) rotate(-26.31) scale(22.9227)">
<stop offset="0.41" stop-color="#FFFD50"/>
<stop offset="0.85" stop-color="#ED8C37"/>
</radialGradient>
</defs>
</svg>
