<svg width="127" height="46" viewBox="0 0 127 46" fill="none" xmlns="http://www.w3.org/2000/svg">
<path d="M122.671 20.8712C119.721 18.6312 116.585 16.6899 113.076 14.6366C112.441 10.7539 112.74 6.64724 111.433 2.91391C110.649 0.673911 108.484 -0.744763 106.244 0.41257C103.78 1.6819 101.913 4.55657 100.308 6.7219C99.2999 8.0659 98.4786 9.5219 97.7319 11.0152C97.6199 10.9779 97.5079 10.9406 97.3586 10.9406C93.9612 10.9406 90.7879 10.5672 87.3906 10.9779C84.8519 11.2766 81.9772 11.2392 81.5292 13.9646C81.2306 15.7566 82.6492 17.6232 83.6572 18.9299C85.3746 21.0952 86.7932 22.8499 88.6599 24.8659C87.0919 27.6286 85.3746 30.3539 84.2919 33.1912C83.7319 34.6846 82.6119 38.1566 84.3666 39.3512C85.7852 40.3219 87.9132 39.7619 90.0039 39.1272C93.2892 38.0819 99.5239 34.9086 99.8599 34.6099C101.839 37.0366 104.415 39.5006 107.289 42.3006C108.671 43.6072 111.807 46.4819 113.711 45.0632C115.279 43.9059 115.241 41.3672 115.279 39.6499C115.279 36.4392 115.129 33.1539 114.905 29.9432C117.407 29.6819 119.871 29.3832 122.335 28.8979C124.052 28.5619 126.105 27.6659 126.105 25.6126C126.105 23.5592 123.977 21.9912 122.521 20.8712H122.671Z" fill="url(#paint0_linear_1_30)"/>
<path d="M122.671 20.8714C122.26 20.5728 121.812 20.2368 121.401 19.9381C123.268 21.8421 123.604 23.7461 122.783 25.2021C121.625 27.2181 117.668 27.6661 115.316 27.8528C112.18 28.1141 114.159 30.8021 112.927 33.6021C110.537 39.1274 103.705 36.1781 101.503 32.8928C100.084 30.7275 94.4094 35.0955 90.9748 31.2875C89.9668 30.1675 89.5934 28.0395 90.0788 26.6208C91.1614 23.4848 89.4068 22.9995 87.8388 20.8341C85.3748 17.4741 83.7321 12.8448 87.6894 12.6955C91.5348 12.5835 94.9321 12.7701 97.1721 12.9194C98.8521 13.0314 99.4494 9.93278 101.839 6.19945C102.399 5.30345 104.303 2.31678 104.788 1.38344C103.033 2.83944 101.577 4.96745 100.345 6.68478C99.3374 8.02878 98.5161 9.48479 97.7694 10.9781C97.6574 10.9408 97.5454 10.9035 97.3961 10.9035C93.9987 10.9035 90.8254 10.5301 87.4281 10.9408C84.8894 11.2394 82.0148 11.2021 81.5668 13.9274C81.2681 15.7194 82.6867 17.5861 83.6947 18.8928C85.4121 21.0581 86.8308 22.8128 88.6974 24.8288C87.1294 27.5915 85.4121 30.3168 84.3294 33.1541C83.7694 34.6475 82.6494 38.1195 84.4041 39.3141C85.8228 40.2848 87.9508 39.7248 90.0414 39.0901C93.3268 38.0448 99.5614 34.8715 99.8974 34.5728C101.876 36.9995 104.452 39.4634 107.327 42.2634C108.708 43.5701 111.844 46.4448 113.748 45.0261C115.316 43.8688 115.279 41.3301 115.316 39.6128C115.316 36.4021 115.167 33.1168 114.943 29.9061C117.444 29.6448 119.908 29.3461 122.372 28.8608C124.089 28.5248 126.143 27.6288 126.143 25.5755C126.143 23.5221 124.015 21.9541 122.559 20.8341L122.671 20.8714Z" fill="url(#paint1_radial_1_30)" style="mix-blend-mode:multiply"/>
<path d="M122.671 20.8712C119.721 18.6312 116.585 16.6899 113.076 14.6366C112.441 10.7539 112.74 6.64724 111.433 2.91391C110.649 0.673911 108.484 -0.744763 106.244 0.41257C103.78 1.6819 101.913 4.55657 100.308 6.7219C99.2999 8.0659 98.4786 9.5219 97.7319 11.0152C97.6199 10.9779 97.5079 10.9406 97.3586 10.9406C93.9612 10.9406 90.7879 10.5672 87.3906 10.9779C84.8519 11.2766 81.9772 11.2392 81.5292 13.9646C81.2306 15.7566 82.6492 17.6232 83.6572 18.9299C85.3746 21.0952 86.7932 22.8499 88.6599 24.8659C87.0919 27.6286 85.3746 30.3539 84.2919 33.1912C83.7319 34.6846 82.6119 38.1566 84.3666 39.3512C85.7852 40.3219 87.9132 39.7619 90.0039 39.1272C93.2892 38.0819 99.5239 34.9086 99.8599 34.6099C101.839 37.0366 104.415 39.5006 107.289 42.3006C108.671 43.6072 111.807 46.4819 113.711 45.0632C115.279 43.9059 115.241 41.3672 115.279 39.6499C115.279 36.4392 115.129 33.1539 114.905 29.9432C117.407 29.6819 119.871 29.3832 122.335 28.8979C124.052 28.5619 126.105 27.6659 126.105 25.6126C126.105 23.5592 123.977 21.9912 122.521 20.8712H122.671ZM123.567 26.5459C122.745 27.1432 121.289 27.1806 120.356 27.3299C118.228 27.6286 116.1 27.9272 113.935 28.0766C113.076 28.1512 112.815 29.0846 113.113 29.6446C113.263 32.1086 113.225 34.6099 113.412 37.0739C113.524 38.7912 113.636 40.5832 113.263 42.3006C112.553 45.5486 108.559 40.9566 107.551 39.9859C105.199 37.6339 103.295 35.9166 101.167 33.3779C100.681 32.8926 100.271 32.6686 100.084 32.7806C98.1799 33.7139 93.4759 35.8046 92.2066 36.4019C90.4892 37.2232 88.7346 37.8952 86.9052 38.2686C83.3586 39.0526 86.2332 33.4152 86.7932 32.1832C87.8386 29.9432 89.1826 27.8526 90.2652 25.6499C90.6386 24.8659 91.0492 24.6046 90.5639 24.0072C88.4732 21.5059 86.0466 18.9672 84.2919 16.2046C83.6946 15.2712 83.3212 13.6659 84.5906 13.1059C85.8599 12.5459 94.5959 12.2846 96.2386 12.5086C97.5452 12.6579 98.3292 12.8446 98.4039 12.7326C100.271 9.70857 101.017 8.43924 102.548 6.49791C103.332 5.48991 106.393 0.599239 108.633 1.75657C110.015 2.46591 110.351 5.37791 110.5 6.75924C110.836 9.70857 111.023 12.3966 111.247 15.4579C111.247 15.7192 112.329 16.2419 113.748 17.0632C116.847 18.9299 120.169 20.7966 122.895 23.1859C123.567 23.7832 125.023 25.5752 123.604 26.5459H123.567Z" fill="#C76B08"/>
<path d="M84.0679 14.5243C84.0679 14.5243 83.6573 13.7403 86.3079 13.479C90.1906 13.143 93.5506 13.5536 95.6786 13.8523C97.0599 14.039 98.6279 14.1883 98.6279 14.1883C99.7106 12.2843 100.719 10.0443 100.719 10.0443L98.6279 12.9936C98.6279 12.9936 95.5666 12.6203 87.3906 12.807C85.2253 12.8443 83.6199 13.6656 84.1053 14.487L84.0679 14.5243Z" fill="#FFF3DF"/>
<path d="M101.018 9.78356C101.018 9.78356 103.855 4.5569 107.028 5.93823C110.202 7.31956 110.463 12.0236 110.762 14.8982C110.5 12.2102 110.612 11.2769 110.164 5.93823C109.754 0.972897 107.29 1.01024 104.564 4.44491C101.839 7.84224 101.018 9.78356 101.018 9.78356Z" fill="#FFF3DF"/>
<path d="M110.425 12.9574C110.425 12.9574 110.499 15.6454 110.425 17.1014C110.425 17.1014 120.505 21.9547 121.998 23.4107C123.491 24.8294 123.753 25.7627 123.305 26.4347C123.305 26.4347 124.761 25.7254 122.633 23.448C120.542 21.1707 110.611 15.6454 110.611 15.6454L110.387 12.9947L110.425 12.9574Z" fill="#FFF3DF"/>
<path d="M87.2034 19.3777C87.2034 19.3777 89.5554 21.9164 92.7288 24.0817C92.7288 24.0817 85.1874 34.535 85.5608 37.4097C85.5608 37.4097 84.7394 36.2524 86.7554 32.631C88.7341 29.0097 91.3101 24.1937 91.3101 24.1937C91.3101 24.1937 88.4728 21.0204 87.2408 19.3777H87.2034Z" fill="#FFF3DF"/>
<path d="M70.441 16.0173C67.8276 14.8599 65.1396 14.0013 62.1156 13.1053C60.921 10.3053 60.3983 7.20662 58.7556 4.63062C57.785 3.09995 55.881 2.39062 54.425 3.69728C52.8196 5.07862 51.9236 7.57995 51.177 9.48395C50.6916 10.6786 50.3183 11.9106 50.0196 13.1426C49.9076 13.1426 49.833 13.1426 49.721 13.1426C47.1823 13.7773 44.7556 14.0759 42.2543 15.0093C40.425 15.6813 38.2596 16.204 38.4463 18.2946C38.5583 19.676 39.9396 20.8333 40.9476 21.6173C42.6276 22.9239 44.009 23.9693 45.7636 25.1266C45.0916 27.4786 44.3076 29.8306 44.009 32.1453C43.8596 33.3773 43.673 36.1773 45.2036 36.7373C46.4356 37.1853 47.929 36.4013 49.385 35.5426C51.6623 34.1613 55.7316 30.6519 55.9183 30.3906C57.8223 31.8093 60.2116 33.1906 62.8996 34.7586C64.169 35.5053 67.0436 37.0733 68.201 35.6919C69.1716 34.5346 68.649 32.6306 68.3503 31.3613C67.7903 28.972 67.0436 26.5079 66.297 24.1933C68.089 23.5213 69.9183 22.8493 71.673 22.0653C72.905 21.5053 74.2863 20.4226 73.913 18.8919C73.5396 17.3613 71.673 16.5773 70.3663 16.0173H70.441Z" fill="url(#paint2_linear_1_30)"/>
<path d="M70.4411 16.017C70.0677 15.8677 69.6944 15.7183 69.3211 15.569C71.0757 16.6517 71.6731 18.033 71.3371 19.265C70.8144 20.9823 67.9771 22.0277 66.2597 22.625C63.9451 23.3717 65.9237 25.0143 65.5131 27.3663C64.7291 31.921 59.0917 30.9877 56.8517 28.9343C55.3584 27.5903 51.9611 31.8837 48.6757 29.6437C47.7051 29.009 47.0331 27.4783 47.1451 26.321C47.4064 23.7823 45.9877 23.745 44.4197 22.401C41.9931 20.3477 39.8651 17.1743 42.8144 16.353C45.6517 15.569 48.2277 15.0837 49.9451 14.785C51.2144 14.561 51.1024 12.1343 52.2224 8.88634C52.4837 8.13968 53.3424 5.56367 53.5291 4.74234C52.4837 6.16101 51.8117 8.02767 51.1771 9.521C50.6917 10.7157 50.3184 11.9477 50.0197 13.1797C49.9077 13.1797 49.8331 13.1797 49.7211 13.1797C47.1824 13.8143 44.7557 14.113 42.2544 15.0463C40.4251 15.7183 38.2597 16.241 38.4464 18.3317C38.5584 19.713 39.9397 20.8703 40.9477 21.6543C42.6277 22.961 44.0091 24.0063 45.7637 25.1637C45.0917 27.5157 44.3077 29.8677 44.0091 32.1823C43.8597 33.4143 43.6731 36.2143 45.2037 36.7743C46.4357 37.2223 47.9291 36.4383 49.3851 35.5797C51.6624 34.1983 55.7317 30.689 55.9184 30.4277C57.8224 31.8463 60.2117 33.2277 62.8997 34.7957C64.1691 35.5423 67.0437 37.1103 68.2011 35.729C69.1717 34.5717 68.6491 32.6677 68.3504 31.3983C67.7904 29.009 67.0437 26.545 66.2971 24.2303C68.0891 23.5583 69.9184 22.8863 71.6731 22.1023C72.9051 21.5423 74.2864 20.4597 73.9131 18.929C73.5397 17.3983 71.6731 16.6143 70.3664 16.0543L70.4411 16.017Z" fill="url(#paint3_radial_1_30)" style="mix-blend-mode:multiply"/>
<path d="M70.441 16.0173C67.8276 14.8599 65.1396 14.0013 62.1156 13.1053C60.921 10.3053 60.3983 7.20662 58.7556 4.63062C57.785 3.09995 55.881 2.39062 54.425 3.69728C52.8196 5.07862 51.9236 7.57995 51.177 9.48395C50.6916 10.6786 50.3183 11.9106 50.0196 13.1426C49.9076 13.1426 49.833 13.1426 49.721 13.1426C47.1823 13.7773 44.7556 14.0759 42.2543 15.0093C40.425 15.6813 38.2596 16.204 38.4463 18.2946C38.5583 19.676 39.9396 20.8333 40.9476 21.6173C42.6276 22.9239 44.009 23.9693 45.7636 25.1266C45.0916 27.4786 44.3076 29.8306 44.009 32.1453C43.8596 33.3773 43.673 36.1773 45.2036 36.7373C46.4356 37.1853 47.929 36.4013 49.385 35.5426C51.6623 34.1613 55.7316 30.6519 55.9183 30.3906C57.8223 31.8093 60.2116 33.1906 62.8996 34.7586C64.169 35.5053 67.0436 37.0733 68.201 35.6919C69.1716 34.5346 68.649 32.6306 68.3503 31.3613C67.7903 28.972 67.0436 26.5079 66.297 24.1933C68.089 23.5213 69.9183 22.8493 71.673 22.0653C72.905 21.5053 74.2863 20.4226 73.913 18.8919C73.5396 17.3613 71.673 16.5773 70.3663 16.0173H70.441ZM72.1583 20.0866C71.673 20.6466 70.5903 20.9826 69.881 21.244C68.313 21.8413 66.7823 22.4386 65.2143 22.9613C64.5796 23.1853 64.5423 23.932 64.9156 24.3053C65.4756 26.1346 65.9236 28.0013 66.4836 29.8306C66.8943 31.1 67.305 32.4066 67.3423 33.7506C67.3796 36.2893 63.609 33.6013 62.6756 33.0413C60.5103 31.6973 58.7556 30.8013 56.7023 29.2706C56.2543 29.0093 55.9183 28.8973 55.769 29.0093C54.4996 30.0546 51.401 32.4813 50.5423 33.1533C49.4223 34.0493 48.2276 34.9079 46.921 35.5426C44.4196 36.7746 45.5023 32.0333 45.7263 31.0253C46.0996 29.1586 46.7343 27.3293 47.145 25.5C47.2943 24.828 47.5183 24.5666 47.033 24.2306C45.017 22.7373 42.7396 21.2813 40.9103 19.5266C40.313 18.9293 39.7156 17.8093 40.5743 17.1746C41.3956 16.54 47.8916 14.7106 49.161 14.5613C50.169 14.4493 50.8036 14.4493 50.841 14.3373C51.6996 11.7613 52.0356 10.6413 52.7823 8.92394C53.193 8.02794 54.5743 3.80928 56.441 4.25728C57.5983 4.51861 58.345 6.64661 58.7556 7.65461C59.577 9.78261 60.2116 11.7613 60.921 14.0386C60.9956 14.2253 61.8916 14.4119 63.0863 14.7853C65.7743 15.6066 68.5743 16.3906 71.0383 17.6973C71.673 18.0333 73.0543 19.0786 72.1583 20.0866Z" fill="#C76B08"/>
<path d="M40.4252 18.3326C40.4252 18.3326 39.9772 17.8099 41.9185 17.1379C44.7558 16.1672 47.3318 15.8686 49.0118 15.6819C50.0945 15.5699 51.2518 15.4206 51.2518 15.4206C51.6998 13.7779 52.0732 11.9486 52.0732 11.9486L51.0278 14.5246C51.0278 14.5246 48.6758 14.8232 42.5905 16.4286C40.9852 16.8766 39.9398 17.7726 40.4252 18.2952V18.3326Z" fill="#FFF3DF"/>
<path d="M52.2227 11.6867C52.2227 11.6867 53.38 7.244 55.9934 7.692C58.644 8.14 59.652 11.612 60.3987 13.7027C59.6894 11.7613 59.6147 11.0147 58.308 7.13199C57.076 3.47332 55.2467 3.996 53.8654 7.02C52.484 10.0813 52.1854 11.6867 52.1854 11.6867H52.2227Z" fill="#FFF3DF"/>
<path d="M59.8381 12.3224C59.8381 12.3224 60.3608 14.3011 60.6221 15.4211C60.6221 15.4211 69.0594 17.2131 70.4407 17.9971C71.8221 18.8184 72.1581 19.4531 71.9714 20.0131C71.9714 20.0131 72.9047 19.1917 70.9261 17.8851C68.9474 16.5784 60.5101 14.2637 60.5101 14.2637L59.8381 12.3224Z" fill="#FFF3DF"/>
<path d="M43.636 21.3928C43.636 21.3928 45.876 22.8488 48.6387 23.8941C48.6387 23.8941 44.9054 33.0781 45.6894 35.1688C45.6894 35.1688 44.868 34.4221 45.6894 31.3981C46.5107 28.3368 47.556 24.2301 47.556 24.2301C47.556 24.2301 44.868 22.3635 43.5987 21.3928H43.636Z" fill="#FFF3DF"/>
<path d="M27.7318 18.7815C25.2304 18.2962 22.6544 18.0348 19.8918 17.8482C18.3238 15.6082 17.2411 12.9948 15.2624 11.0908C14.1051 9.9335 12.3131 9.7095 11.2678 11.0908C10.1478 12.6215 9.84911 15.0108 9.51311 16.8402C9.32645 17.9975 9.25178 19.1548 9.21445 20.2748C9.13978 20.2748 9.02778 20.2748 8.95311 20.3495C6.86245 21.4322 4.77178 22.1415 2.79311 23.4482C1.33711 24.4188 -0.454888 25.2775 0.105112 27.1068C0.478445 28.3015 1.89711 29.0482 2.94245 29.5335C4.65978 30.3548 6.11578 30.9895 7.87045 31.6615C7.75845 33.8642 7.53445 36.0668 7.72111 38.1575C7.83311 39.2402 8.20645 41.7415 9.66245 41.9655C10.8198 42.1148 11.9771 41.1442 13.0971 40.0988C14.8144 38.4188 17.7264 34.5735 17.8384 34.2748C19.8171 35.1708 22.1318 35.9175 24.8198 36.7762C26.0891 37.1868 28.9264 37.9708 29.6731 36.5522C30.2704 35.3575 29.4864 33.7895 28.9638 32.7068C27.9931 30.7282 26.8731 28.7122 25.7531 26.8082C27.2091 25.8748 28.6651 24.9415 30.0464 23.8962C31.0171 23.1495 32.0251 21.9548 31.3904 20.6855C30.7558 19.4162 28.9638 19.1175 27.7318 18.8562V18.7815Z" fill="url(#paint4_linear_1_30)"/>
<path d="M27.7317 18.7822C27.3584 18.7076 27.0224 18.6329 26.649 18.5956C28.4037 19.2302 29.1877 20.2756 29.113 21.4329C29.001 23.0382 26.7237 24.5316 25.305 25.3529C23.4384 26.4729 25.4917 27.5182 25.5664 29.6836C25.753 33.8276 20.6384 34.0889 18.249 32.7449C16.681 31.8489 14.553 36.2916 11.2304 34.9849C10.2597 34.5742 9.3637 33.3796 9.2517 32.3716C8.99037 30.0942 7.72104 30.3182 6.07837 29.4596C3.5397 28.1529 1.0757 25.7636 3.50237 24.4569C5.85437 23.1876 8.0197 22.2916 9.4757 21.6942C10.5584 21.2462 9.96104 19.1182 10.3344 16.0942C10.409 15.3849 10.6704 12.9209 10.6704 12.2116C10.0357 13.6676 9.77437 15.4222 9.55037 16.8782C9.3637 18.0356 9.28904 19.1929 9.2517 20.3129C9.17704 20.3129 9.06504 20.3129 8.99037 20.3876C6.8997 21.4702 4.80904 22.1796 2.83037 23.4862C1.37437 24.4569 -0.417629 25.3156 0.142371 27.1449C0.515704 28.3396 1.93437 29.0862 2.9797 29.5716C4.69704 30.3929 6.15304 31.0276 7.9077 31.6996C7.7957 33.9022 7.5717 36.1049 7.75837 38.1956C7.87037 39.2782 8.2437 41.7796 9.6997 42.0036C10.857 42.1529 12.0144 41.1822 13.1344 40.1369C14.8517 38.4569 17.7637 34.6116 17.8757 34.3129C19.8544 35.2089 22.169 35.9556 24.857 36.8142C26.1264 37.2249 28.9637 38.0089 29.7104 36.5902C30.3077 35.3956 29.5237 33.8276 29.001 32.7449C28.0304 30.7662 26.9104 28.7502 25.7904 26.8462C27.2464 25.9129 28.7024 24.9796 30.0837 23.9342C31.0544 23.1876 32.0624 21.9929 31.4277 20.7236C30.793 19.4542 29.001 19.1556 27.769 18.8942L27.7317 18.7822Z" fill="url(#paint5_radial_1_30)" style="mix-blend-mode:multiply"/>
<path d="M27.7318 18.7815C25.2304 18.2962 22.6544 18.0348 19.8918 17.8482C18.3238 15.6082 17.2411 12.9948 15.2624 11.0908C14.1051 9.9335 12.3131 9.7095 11.2678 11.0908C10.1478 12.6215 9.84911 15.0108 9.51311 16.8402C9.32645 17.9975 9.25178 19.1548 9.21445 20.2748C9.13978 20.2748 9.02778 20.2748 8.95311 20.3495C6.86245 21.4322 4.77178 22.1415 2.79311 23.4482C1.33711 24.4188 -0.454888 25.2775 0.105112 27.1068C0.478445 28.3015 1.89711 29.0482 2.94245 29.5335C4.65978 30.3548 6.11578 30.9895 7.87045 31.6615C7.75845 33.8642 7.53445 36.0668 7.72111 38.1575C7.83311 39.2402 8.20645 41.7415 9.66245 41.9655C10.8198 42.1148 11.9771 41.1442 13.0971 40.0988C14.8144 38.4188 17.7264 34.5735 17.8384 34.2748C19.8171 35.1708 22.1318 35.9175 24.8198 36.7762C26.0891 37.1868 28.9264 37.9708 29.6731 36.5522C30.2704 35.3575 29.4864 33.7895 28.9638 32.7068C27.9931 30.7282 26.8731 28.7122 25.7531 26.8082C27.2091 25.8748 28.6651 24.9415 30.0464 23.8962C31.0171 23.1495 32.0251 21.9548 31.3904 20.6855C30.7558 19.4162 28.9638 19.1175 27.7318 18.8562V18.7815ZM30.0464 21.9922C29.7104 22.5895 28.8518 23.0748 28.2918 23.4482C27.0598 24.2695 25.8278 25.1282 24.5211 25.8748C23.9984 26.1735 24.1478 26.8455 24.5211 27.1068C25.3798 28.6002 26.1264 30.1308 26.9851 31.6242C27.5824 32.6695 28.2171 33.7522 28.5158 34.9095C29.0384 37.1122 25.1931 35.5068 24.2598 35.2082C22.0944 34.4615 20.3771 33.9762 18.2864 33.0802C17.8384 32.9308 17.5024 32.9308 17.4278 33.0428C16.5318 34.2002 14.2544 36.9255 13.6571 37.7095C12.8358 38.7175 11.9398 39.6882 10.9318 40.5095C8.99044 42.0775 9.02778 37.7095 8.99045 36.7762C8.99045 35.0588 9.13978 33.3415 9.13978 31.6242C9.13978 31.0268 9.28911 30.7282 8.80378 30.5415C6.75045 29.6082 4.47311 28.7868 2.53178 27.6295C1.85978 27.2562 1.15045 26.3602 1.78511 25.6135C2.41978 24.8668 7.72111 22.0295 8.84111 21.6562C9.69978 21.3575 10.2598 21.2455 10.2598 21.1335C10.4838 18.7068 10.5584 17.6615 10.9318 15.9815C11.1184 15.1228 11.5291 11.1655 13.2464 11.1655C14.2918 11.1655 15.4118 12.8828 15.9344 13.6668C17.0544 15.3842 17.9878 16.9895 19.0704 18.8188C19.1824 18.9682 20.0038 18.9682 21.1238 19.0802C23.6251 19.2668 26.2384 19.4162 28.6651 20.0882C29.2998 20.2748 30.7184 20.9095 30.1211 21.9548L30.0464 21.9922Z" fill="#C76B08"/>
<path d="M1.85902 26.6589C1.85902 26.6589 1.37368 26.2856 2.94168 25.3149C5.21902 23.9336 7.45902 23.1496 8.87769 22.6642C9.81102 22.3282 10.7817 21.9922 10.7817 21.9922C10.8563 20.4616 10.819 18.7816 10.819 18.7816L10.4084 21.2456C10.4084 21.2456 8.39235 21.9549 3.38968 24.5682C2.04568 25.2776 1.29902 26.2482 1.85902 26.6216V26.6589Z" fill="#FFF3DF"/>
<path d="M10.932 18.5194C10.932 18.5194 11.0813 14.4127 13.4707 14.3007C15.86 14.1887 17.4653 17.026 18.5107 18.706C17.5027 17.138 17.2787 16.5034 15.412 13.33C13.62 10.3807 12.1267 11.1647 11.492 14.114C10.8573 17.0634 10.932 18.5194 10.932 18.5194Z" fill="#FFF3DF"/>
<path d="M17.726 17.6238C17.726 17.6238 18.5847 19.2664 18.9953 20.1997C18.9953 20.1997 26.7233 20.1251 28.1047 20.5731C29.486 21.0211 29.934 21.5064 29.8593 22.0291C29.8593 22.0291 30.5313 21.1331 28.5153 20.3491C26.4993 19.5651 18.6967 19.1917 18.6967 19.1917L17.726 17.6238Z" fill="#FFF3DF"/>
<path d="M5.29457 28.7124C5.29457 28.7124 7.53458 29.5337 10.1479 29.907C10.1479 29.907 8.69191 38.7177 9.77457 40.3977C9.77457 40.3977 8.91591 39.9124 9.02791 37.075C9.13991 34.2377 9.25191 30.4297 9.25191 30.4297C9.25191 30.4297 6.52657 29.3097 5.25724 28.7124H5.29457Z" fill="#FFF3DF"/>
<defs>
<linearGradient id="paint0_linear_1_30" x1="98.5159" y1="44.3912" x2="105.236" y2="13.8526" gradientUnits="userSpaceOnUse">
<stop offset="0.11" stop-color="#FFFD62"/>
<stop offset="0.49" stop-color="#FFFC0A"/>
<stop offset="0.93" stop-color="#FDBE1B"/>
</linearGradient>
<radialGradient id="paint1_radial_1_30" cx="0" cy="0" r="1" gradientUnits="userSpaceOnUse" gradientTransform="translate(106.281 13.0688) scale(33.1147 33.1147)">
<stop offset="0.41" stop-color="#FFFD50"/>
<stop offset="0.85" stop-color="#ED8C37"/>
</radialGradient>
<linearGradient id="paint2_linear_1_30" x1="56.681" y1="37.9481" x2="56.0996" y2="13.9139" gradientUnits="userSpaceOnUse">
<stop offset="0.11" stop-color="#FFFD62"/>
<stop offset="0.49" stop-color="#FFFC0A"/>
<stop offset="0.93" stop-color="#FDBE1B"/>
</linearGradient>
<radialGradient id="paint3_radial_1_30" cx="0" cy="0" r="1" gradientUnits="userSpaceOnUse" gradientTransform="translate(56.7554 13.1381) rotate(-13.76) scale(25.4987 25.4987)">
<stop offset="0.41" stop-color="#FFFD50"/>
<stop offset="0.85" stop-color="#ED8C37"/>
</radialGradient>
<linearGradient id="paint4_linear_1_30" x1="19.978" y1="40.7292" x2="14.8121" y2="19.7525" gradientUnits="userSpaceOnUse">
<stop offset="0.11" stop-color="#FFFD62"/>
<stop offset="0.49" stop-color="#FFFC0A"/>
<stop offset="0.93" stop-color="#FDBE1B"/>
</linearGradient>
<radialGradient id="paint5_radial_1_30" cx="0" cy="0" r="1" gradientUnits="userSpaceOnUse" gradientTransform="translate(15.1996 18.9369) rotate(-26.31) scale(22.9227)">
<stop offset="0.41" stop-color="#FFFD50"/>
<stop offset="0.85" stop-color="#ED8C37"/>
</radialGradient>
</defs>
</svg>
