<svg width="165" height="177" viewBox="0 0 165 177" fill="none" xmlns="http://www.w3.org/2000/svg">
<g clip-path="url(#clip0_4_927)">
<path d="M137.288 22.3536C148.848 29.8493 157.836 25.4489 158.88 15.1563C159.924 4.86374 116.74 9.00314 137.288 22.3536Z" fill="#477CB1"/>
<g opacity="0.6" style="mix-blend-mode:multiply">
<path d="M167.569 37.3462C166.824 24.1449 165.518 9.37729 150.378 7.10249C144.747 6.28206 138.967 6.46852 133.298 6.46852C124.274 6.46852 115.324 6.39394 106.299 6.0956C87.8021 5.49893 69.3054 5.34977 50.8086 5.2006C42.9027 5.12602 34.9595 4.86497 27.0536 5.08872C21.7582 5.2006 16.4627 5.87185 11.6521 8.33312C6.72955 10.869 3.82078 15.7542 2.14265 20.9751C0.650973 25.562 0.762848 30.3353 0.9866 35.1087C0.427221 48.0863 0.539097 61.1757 0.427221 74.116C0.278054 89.4803 0.352637 104.807 0.0543023 120.172C-0.0948653 127.257 0.0543023 134.38 0.613681 141.465C1.06118 147.096 1.58327 153.287 3.93266 158.508C7.8856 167.159 18.1409 173.089 27.2774 173.574C35.8172 173.984 43.7231 173.163 51.8155 172.567C62.1826 171.746 70.4614 172.082 80.8658 171.448C92.0907 170.814 103.353 170.404 114.578 170.18C119.91 170.068 125.206 170.292 130.539 170.478C135.051 170.627 139.899 170.814 144.299 169.546C149.408 169.061 154.443 168.353 158.247 164.325C162.237 160.074 163.542 153.287 164.251 147.656C165.22 139.638 165.817 131.583 166.078 123.528C166.413 112.788 165.891 102.048 166.525 91.2703C167.197 79.8217 167.868 68.3731 168.017 56.8872C168.092 50.3611 168.017 43.835 167.644 37.3089L167.569 37.3462Z" fill="#776A50"/>
</g>
<path d="M164.25 35.4072C163.542 22.989 162.274 9.11638 147.581 6.99075C142.136 6.20762 136.542 6.39408 131.06 6.39408C122.334 6.39408 113.645 6.31949 104.919 6.05845C87.0186 5.49907 69.0812 5.38719 51.1811 5.20073C43.4989 5.12615 35.8168 4.9024 28.172 5.08886C23.063 5.20073 17.9167 5.8347 13.2552 8.14679C8.48185 10.5335 5.68495 15.1577 4.04411 20.0429C2.62702 24.3688 2.7016 28.8438 2.88806 33.3188C2.36598 45.5133 2.47785 57.8569 2.36598 70.0141C2.21681 84.446 2.29139 98.878 1.99306 113.347C1.88118 120.022 1.99306 126.698 2.55243 133.336C2.99994 138.631 3.48473 144.449 5.75954 149.334C9.56331 157.464 19.5202 163.057 28.3957 163.505C36.6745 163.878 44.3194 163.132 52.1507 162.535C62.1822 161.789 70.2372 162.05 80.2688 161.491C91.158 160.894 102.047 160.521 112.936 160.298C118.083 160.186 123.229 160.41 128.375 160.596C132.738 160.745 137.437 160.894 141.726 159.738C146.648 159.291 151.534 158.62 155.225 154.853C159.104 150.863 160.372 144.486 161.006 139.191C161.938 131.658 162.535 124.087 162.796 116.517C163.131 106.374 162.609 96.3048 163.243 86.1614C163.914 75.3841 164.548 64.644 164.66 53.8294C164.735 47.6762 164.66 41.5603 164.287 35.4072H164.25Z" fill="url(#paint0_linear_4_927)"/>
<g style="mix-blend-mode:screen" opacity="0.5">
<path d="M23.9573 30.2595C25.1506 28.3203 26.605 26.4557 28.1339 24.7776C25.5608 18.4752 23.1368 12.1356 20.7502 5.75871C18.1397 6.20621 15.6039 6.95205 13.2172 8.14539C9.30154 10.0846 6.7284 13.5527 5.01297 17.4311C9.41341 21.3467 15.3428 24.1063 19.9297 27.3507C21.2722 28.283 22.6147 29.2899 23.9573 30.2595Z" fill="#FDD569"/>
<path d="M137.698 26.68C138.406 28.209 139.227 29.6634 140.047 31.1178C147.916 29.7753 155.635 27.7242 163.429 26.3444C162.161 17.3944 158.917 9.3766 148.885 7.28825C147.543 10.9802 145.231 14.2991 143.068 17.6554C141.166 20.6015 139.376 23.6221 137.698 26.68Z" fill="#FDD569"/>
<path d="M136.504 134.678C136.243 134.939 135.945 135.2 135.609 135.498C135.907 139.228 138.369 143.553 139.226 147.059C140.27 151.236 141.165 155.487 141.986 159.738C146.797 159.291 151.533 158.582 155.15 154.89C157.313 152.653 158.655 149.632 159.55 146.499C152.316 142.062 144.484 138.482 137.213 134.081C136.989 134.305 136.728 134.491 136.504 134.715V134.678Z" fill="#FDD569"/>
<path d="M28.4323 129.978C28.4323 129.978 28.2086 130.313 28.0594 130.463C20.7129 137.25 14.075 144.745 7.32513 152.092C11.4272 158.059 18.8483 162.198 26.0084 163.242C28.134 152.8 29.924 142.321 31.1174 131.73C30.2224 131.134 29.3274 130.537 28.4323 129.94V129.978Z" fill="#FDD569"/>
</g>
<path d="M25.2631 22.9881C23.1375 17.3571 20.4152 11.9497 18.0658 6.35594C16.425 6.80344 14.7841 7.36282 13.2179 8.14595C13.106 8.18324 13.0314 8.25783 12.9195 8.33241C17.2827 13.0312 21.4221 17.9164 25.2259 22.9881H25.2631Z" fill="#FFF3DF"/>
<path d="M143.031 29.552C145.045 28.3214 147.059 27.0908 149.11 25.8974C152.914 23.1751 156.531 20.1545 160.111 17.0592C154.293 21.0868 148.327 24.9278 143.068 29.552H143.031Z" fill="#FFF3DF"/>
<path d="M158.768 13.2544C157.164 11.166 155.113 9.45058 152.354 8.33183C147.879 13.5527 144.746 20.1534 141.054 25.8217C140.905 26.0082 140.793 26.2319 140.644 26.4184C146.275 21.5704 152.652 17.5429 158.768 13.2544Z" fill="#FFF3DF"/>
<path d="M149.744 146.387C151.758 148.961 153.772 151.534 155.86 153.958C156.606 153.063 157.277 152.093 157.799 151.049C155.636 149.893 153.548 148.625 151.609 147.021C149.893 145.604 148.066 144.299 146.276 142.994C147.544 144.038 148.737 145.157 149.744 146.387Z" fill="#FFF3DF"/>
<path d="M11.0181 156.232C11.6147 155.411 12.0995 154.74 12.3979 154.33C15.4931 149.594 18.7375 144.932 21.9819 140.233C17.6187 144.858 13.2183 149.407 8.92972 154.143C9.56368 154.889 10.2722 155.56 11.0554 156.232H11.0181Z" fill="#FFF3DF"/>
<path opacity="0.5" d="M150.75 79.0383C150.489 69.7899 150.451 61.1754 150.265 51.9643C150.079 43.6109 150.228 35.7797 148.997 27.5009C147.543 17.5812 139.227 17.7304 131.06 17.6558C102.233 14.4114 72.9216 16.3133 44.0577 16.3506C35.5551 16.3506 25.7101 16.7235 19.3332 23.3987C14.709 28.2467 14.2987 35.0338 14.8208 41.9701C14.8208 54.6121 13.9631 63.6367 13.9631 74.4514C13.9631 87.69 13.814 100.891 14.6717 114.13C15.0446 119.798 15.5294 125.429 16.2379 131.023C16.8719 135.797 17.2821 140.906 19.0721 145.381C21.7198 151.907 27.5001 155.3 34.2872 155.114C34.4737 155.114 34.6601 155.039 34.772 154.89C42.0066 155.748 49.5769 155.3 56.7369 155.412C66.0972 155.524 75.4575 155.561 84.855 155.599C94.2899 155.599 103.725 155.375 113.122 154.442C119.126 153.846 127.33 154.181 133.334 153.809C138.182 153.51 142.396 152.28 145.976 148.289C149.519 144.299 149.706 136.617 150.004 131.433C151.048 114.055 151.272 96.4909 150.75 79.0755V79.0383Z" fill="url(#paint1_linear_4_927)" style="mix-blend-mode:multiply"/>
<path d="M164.25 35.4072C163.542 22.989 162.274 9.11638 147.581 6.99075C142.136 6.20762 136.542 6.39408 131.06 6.39408C122.334 6.39408 113.645 6.31949 104.919 6.05845C87.0186 5.49907 69.0812 5.38719 51.1811 5.20073C43.4989 5.12615 35.8168 4.9024 28.172 5.08886C23.063 5.20073 17.9167 5.8347 13.2552 8.14679C8.48185 10.5335 5.68495 15.1577 4.04411 20.0429C2.62702 24.3688 2.7016 28.8438 2.88806 33.3188C2.36598 45.5133 2.47785 57.8569 2.36598 70.0141C2.21681 84.446 2.29139 98.878 1.99306 113.347C1.88118 120.022 1.99306 126.698 2.55243 133.336C2.99994 138.631 3.48473 144.449 5.75954 149.334C9.56331 157.464 19.5202 163.057 28.3957 163.505C36.6745 163.878 44.3194 163.132 52.1507 162.535C62.1822 161.789 70.2372 162.05 80.2688 161.491C91.158 160.894 102.047 160.521 112.936 160.298C118.083 160.186 123.229 160.41 128.375 160.596C132.738 160.745 137.437 160.894 141.726 159.738C146.648 159.291 151.534 158.62 155.225 154.853C159.104 150.863 160.372 144.486 161.006 139.191C161.938 131.658 162.535 124.087 162.796 116.517C163.131 106.374 162.609 96.3048 163.243 86.1614C163.914 75.3841 164.548 64.644 164.66 53.8294C164.735 47.6762 164.66 41.5603 164.287 35.4072H164.25ZM160.372 114.018C160.185 120.507 159.887 126.959 159.402 133.448C158.992 139.377 158.172 145.53 155.225 150.788C151.944 156.531 144.224 157.725 138.22 158.135C130.277 158.657 122.259 158.06 114.279 158.172C103.39 158.359 92.5005 158.769 81.6113 159.328C71.8781 159.813 64.4197 159.477 54.6865 160.372C50.5098 160.783 39.4714 161.715 35.2574 161.566C26.382 161.305 19.0355 159.403 14.9706 156.68C10.4956 153.66 7.58684 149.222 6.24433 144.001C3.07452 131.62 3.93223 117.86 4.11869 105.218C4.34245 92.5384 4.04411 79.8591 4.19328 67.1799C4.26786 56.8127 4.97641 46.2964 4.60349 35.8547C4.67807 32.0136 4.52891 28.1725 5.08828 24.3315C6.09517 17.6189 9.89894 11.7268 16.3131 9.30284C21.1611 7.43825 26.6803 7.51283 31.7893 7.51283C39.6206 7.51283 47.4519 7.662 55.2832 7.77388C71.8035 7.96033 88.2865 8.14679 104.807 8.66888C113.086 8.92992 121.327 9.07909 129.606 9.00451C135.013 9.00451 140.458 9.26555 145.865 9.82493C154.144 10.6826 158.656 13.5914 160.558 22.0567C162.162 29.1421 162.05 36.3768 162.311 43.5741C163.206 66.9934 160.968 90.5619 160.26 113.981L160.372 114.018Z" fill="#C76B08"/>
<path d="M147.169 75.6446C146.908 67.2167 146.871 59.3481 146.684 50.9201C146.535 43.3126 146.647 36.1525 145.491 28.5823C144.111 19.5203 136.205 19.6695 128.449 19.5949C101.076 16.6489 73.2194 18.3643 45.8099 18.4016C37.7176 18.4016 28.3946 18.7372 22.316 24.8531C17.9529 29.2535 17.5054 35.4813 18.0274 41.7836C18.0274 53.3068 17.207 61.5483 17.207 71.3934C17.207 83.4759 17.0579 95.5212 17.8783 107.604C18.2512 112.75 18.6987 117.896 19.4072 123.043C20.0039 127.368 20.3768 132.03 22.0923 136.132C24.6281 142.099 30.11 145.194 36.5615 145.008C36.748 145.008 36.8971 144.933 37.009 144.821C43.8707 145.604 51.0681 145.231 57.8925 145.306C66.8052 145.418 75.6807 145.455 84.5935 145.455C93.5808 145.455 102.531 145.269 111.481 144.411C117.187 143.889 124.981 144.187 130.686 143.814C135.31 143.553 139.301 142.434 142.694 138.78C146.051 135.162 146.237 128.152 146.535 123.416C147.505 107.529 147.729 91.5683 147.244 75.6446H147.169Z" fill="#373737"/>
<g style="mix-blend-mode:multiply">
<path d="M147.169 75.6446C146.908 67.2167 146.871 59.3481 146.684 50.9201C146.535 43.3126 146.647 36.1525 145.491 28.5823C144.111 19.5203 136.205 19.6695 128.449 19.5949C101.076 16.6489 73.2194 18.3643 45.8099 18.4016C37.7176 18.4016 28.3946 18.7372 22.316 24.8531C17.9529 29.2535 17.5054 35.4813 18.0274 41.7836C18.0274 53.3068 17.207 61.5483 17.207 71.3934C17.207 83.4759 17.0579 95.5212 17.8783 107.604C18.2512 112.75 18.6987 117.896 19.4072 123.043C20.0039 127.368 20.3768 132.03 22.0923 136.132C24.6281 142.099 30.11 145.194 36.5615 145.008C36.748 145.008 36.8971 144.933 37.009 144.821C43.8707 145.604 51.0681 145.231 57.8925 145.306C66.8052 145.418 75.6807 145.455 84.5935 145.455C93.5808 145.455 102.531 145.269 111.481 144.411C117.187 143.889 124.981 144.187 130.686 143.814C135.31 143.553 139.301 142.434 142.694 138.78C146.051 135.162 146.237 128.152 146.535 123.416C147.505 107.529 147.729 91.5683 147.244 75.6446H147.169ZM144.783 120.358C144.559 125.056 144.335 131.21 142.135 135.424C137.958 143.479 127.218 141.353 119.536 141.987C108.348 142.882 97.1981 143.777 85.9733 143.814C77.5453 143.814 69.1173 143.814 60.6894 143.74C52.6716 143.702 44.2064 142.807 36.1513 143.553C33.0561 142.957 30.1473 142.546 27.4623 140.756C24.6654 138.854 23.3602 135.424 22.5398 132.328C19.8175 122.222 19.4445 111.109 19.0343 100.705C18.3631 84.0726 20.0785 66.4335 20.1904 49.7641C20.4141 51.6659 18.997 30.0739 24.9637 25.1887C32.0492 19.3712 43.8707 20.6018 52.2987 20.5645C65.5 20.4899 78.7014 20.1543 91.9027 20.1543C100.144 20.1543 108.386 20.4899 116.627 20.9374C120.878 21.1612 125.167 21.3103 129.418 21.4968C134.192 21.6833 138.89 21.1612 141.687 25.8972C144.857 31.2673 144.932 38.5019 145.044 44.4686C145.23 55.0222 144.559 65.8369 145.044 76.3532C145.528 86.6085 145.603 96.901 145.044 107.156C144.857 110.252 145.044 115.211 144.82 120.358H144.783Z" fill="#1B4701"/>
</g>
<path d="M139.003 73.2946C138.779 65.9108 138.742 59.0118 138.592 51.628C138.443 44.9528 138.555 38.6877 137.511 32.0498C136.28 24.1066 129.27 24.2557 122.333 24.1812C97.9816 21.5707 73.2198 23.0997 48.8309 23.137C41.6335 23.137 33.3547 23.4353 27.9474 28.8054C24.0691 32.6837 23.6961 38.1283 24.1436 43.6475C24.1436 53.7536 23.4351 60.951 23.3978 69.6027C23.3978 80.1936 23.2486 90.7845 23.9945 101.338C24.2928 105.85 24.703 110.363 25.337 114.875C25.8591 118.679 26.1947 122.781 27.7237 126.361C29.9612 131.582 34.8464 134.304 40.5894 134.155C40.7758 134.155 40.8877 134.08 40.9996 133.969C47.1154 134.64 53.5296 134.304 59.5709 134.379C67.4768 134.491 75.3827 134.491 83.3259 134.528C91.3063 134.528 99.2868 134.379 107.23 133.633C112.302 133.148 119.238 133.409 124.31 133.148C128.412 132.887 131.955 131.955 134.975 128.71C137.996 125.503 138.145 119.387 138.406 115.248C139.264 101.338 139.45 87.3163 139.04 73.3692L139.003 73.2946Z" fill="url(#paint2_radial_4_927)"/>
<path d="M25.8586 71.543C25.0754 62.6675 26.3061 45.7743 27.0146 39.4346C27.7232 33.1323 26.5298 29.1421 39.1718 27.725C51.8137 26.3079 60.9502 26.0842 67.2899 26.3079C73.6295 26.5317 77.3587 30.2981 70.5716 32.6102C63.7844 34.9596 43.0874 46.8184 31.2286 70.5361C29.8115 73.333 26.5298 79.4489 25.8586 71.4684V71.543Z" fill="url(#paint3_linear_4_927)" style="mix-blend-mode:screen"/>
<path d="M79.5215 26.0837C87.2409 25.8599 93.0958 25.8599 92.1635 28.6568C91.2312 31.4537 89.1055 30.9689 83.5118 30.5214C80.4538 30.2976 77.8807 31.2299 77.6569 29.8128C77.4332 28.3958 76.8738 26.1582 79.5215 26.0464V26.0837Z" fill="url(#paint4_linear_4_927)" style="mix-blend-mode:screen"/>
<path opacity="0.5" d="M25.1501 118.605C22.3532 92.8367 31.7134 79.2625 45.2877 97.5355C58.8619 115.809 65.9101 116.741 76.6502 116.256C87.4275 115.771 105.216 112.974 114.576 97.5355C123.936 82.0593 139.412 78.7777 138.48 98.9526C137.548 119.09 147.84 136.431 111.294 135.946C89.2921 135.685 60.6892 135.499 41.4839 136.431C31.1168 136.953 26.4553 131.061 25.1128 118.643L25.1501 118.605Z" fill="url(#paint5_radial_4_927)" style="mix-blend-mode:multiply"/>
<g style="mix-blend-mode:screen">
<path d="M51.1438 138.071C67.2166 135.46 111.631 138.779 121.7 136.989C131.769 135.199 138.966 133.409 139.712 122.595C140.421 111.78 139.003 98.1311 139.003 90.8964C139.003 83.6618 143.702 66.433 144.038 92.3508C144.411 118.306 143.068 127.032 142.584 131.246C142.099 135.46 140.421 140.979 124.572 140.979C108.722 140.979 97.5722 142.769 78.4787 142.061C59.3853 141.352 11.1296 144.597 51.1065 138.108L51.1438 138.071Z" fill="url(#paint6_radial_4_927)"/>
</g>
<g style="mix-blend-mode:screen">
<path d="M115.956 134.268C99.7342 132.925 55.6925 139.675 45.5118 138.668C35.3311 137.661 29.7373 136.02 26.4556 125.691C20.5262 107.082 23.9571 101.675 23.3977 94.5146C22.8383 87.3172 18.1395 70.0138 19.7804 95.8944C21.4212 121.775 23.435 130.389 24.2554 134.566C25.0385 138.705 27.1642 144.075 42.9386 142.845C58.7504 141.614 70.0126 142.547 88.9568 140.346C107.938 138.146 156.306 137.624 115.919 134.268H115.956Z" fill="url(#paint7_radial_4_927)"/>
</g>
<g opacity="0.6" style="mix-blend-mode:multiply">
<path d="M90.5244 24.1824C82.9169 26.8674 71.692 37.421 68.6714 44.6183C66.9559 48.7204 65.688 53.009 64.6438 57.3349C64.4201 58.379 64.1963 62.1082 63.4505 62.7795C63.4505 62.593 60.5044 63.0778 60.1688 63.227C54.0529 65.6137 45.5131 70.76 43.7604 76.2792C40.0312 88.1007 38.092 95.4472 38.9497 100.593C42.4552 120.843 60.2434 120.694 69.5664 125.132C75.7941 128.115 82.1337 130.986 88.7344 133.037C92.65 134.268 96.603 135.872 100.631 134.305C104.099 132.963 106.56 130.017 108.686 127.071C112.713 121.514 115.473 115.249 118.792 109.245C121.514 104.323 126.175 97.983 125.765 92.0909C125.653 90.2263 123.267 85.3038 121.253 81.7984C122.148 80.2321 123.901 76.5775 124.758 74.9739C130.874 63.4135 132.142 55.0601 126.064 42.3808C118.344 26.3453 105.777 18.7751 90.5244 24.1451V24.1824ZM80.9404 49.1307C86.124 41.5231 96.1182 38.5771 104.583 42.2689C113.795 46.2592 117.598 56.2161 114.54 65.5391C113.72 67.9631 112.713 70.2752 111.632 72.5873C110.998 73.8925 110.364 75.1977 109.692 76.5029C108.872 78.1065 107.641 76.7267 106.224 76.0927C101.078 73.7806 95.7453 71.9533 90.3752 70.2752C87.7275 69.4547 85.0425 68.597 82.3948 67.7393C80.9404 67.2545 79.486 66.7324 78.0316 66.2476C76.6518 65.7628 74.8991 65.912 75.272 64.2712C76.5027 59.0876 77.957 53.643 80.9777 49.168C85.5646 42.4554 77.9943 53.5311 80.9777 49.168L80.9404 49.1307Z" fill="#776A50"/>
</g>
<path d="M120.545 34.6611C117.898 30.1488 113.46 25.9721 108.985 23.3617C106.113 21.6463 102.682 20.1546 99.4007 19.446C92.0542 17.7679 83.4025 18.6256 76.4662 21.5717C69.7537 24.3686 65.838 30.4471 63.1157 36.9359C60.6917 42.7162 59.1255 48.9812 57.8948 55.209C49.7279 53.8292 46.2225 68.1865 44.3952 73.743C42.0831 80.7166 38.6895 87.3546 38.3166 94.7757C38.0183 100.742 40.8524 104.956 45.2529 108.052C50.6975 112.303 58.1186 114.578 64.048 117.412C69.3062 119.91 74.6762 122.297 80.1581 124.311C82.8804 125.28 85.64 126.064 88.3996 126.847C93.6205 128.376 97.8718 125.877 101.191 121.924C105.367 116.964 108.351 111.11 111.26 105.367C114.094 99.7355 117.86 94.2163 119.762 88.2123C120.844 84.7441 120.247 81.7235 118.084 79.4114C118.084 79.3741 118.047 79.2995 118.009 79.2622C117.04 78.2181 116.033 77.3231 114.914 76.4653C118.345 70.5359 121.478 64.4201 123.305 57.8194C125.468 49.9881 124.61 41.7093 120.508 34.6984L120.545 34.6611ZM106.523 63.8607C105.628 65.8744 104.622 67.8136 103.615 69.7528C99.3634 67.6645 95.0003 65.949 90.488 64.3828C84.8196 62.4436 79.0393 60.84 73.4083 58.8263C72.1403 58.3788 70.8351 57.9313 69.4926 57.4838C70.7978 51.8527 72.476 45.7741 75.422 41.3737C80.0089 34.6611 87.8402 31.6032 95.7834 33.4305C103.727 35.2578 109.805 42.1195 110.215 50.2864C110.439 54.9106 108.388 59.684 106.561 63.8234L106.523 63.8607Z" fill="url(#paint8_radial_4_927)"/>
<path d="M121.513 58.9747C119.649 64.8295 116.814 70.2369 113.719 75.5323C111.332 73.8542 108.722 72.4371 106.149 71.0573C105.739 70.8335 105.328 70.6471 104.956 70.4606C106.037 68.1485 107.081 65.8364 108.051 63.4497C109.915 58.8628 111.594 53.903 111.146 48.8686C110.437 41.0373 104.098 34.735 96.7887 32.5347C88.9574 30.1854 81.0515 33.1687 75.9425 39.2846C72.0641 43.9461 69.1554 50.7332 67.8874 56.9982C65.0532 56.1778 62.0699 55.5438 59.1611 55.4693C59.0493 55.432 58.9374 55.3947 58.8255 55.3574C59.8324 51.3672 60.7274 47.3023 61.9953 43.3867C63.7107 38.1285 65.9483 31.9381 69.9012 27.9478C73.1829 24.6289 77.7698 22.5032 82.1702 21.3472C87.3538 20.0047 92.7984 19.8928 98.1312 20.7878C107.044 22.2422 114.428 28.2835 118.903 35.9283C122.968 42.9019 123.974 51.2926 121.55 59.012L121.513 58.9747Z" fill="url(#paint9_radial_4_927)"/>
<g opacity="0.7" style="mix-blend-mode:multiply">
<path d="M120.544 34.6608C117.896 30.1485 113.459 25.9718 108.984 23.3614C106.746 22.0562 104.21 20.8628 101.637 20.0424C105.516 21.6833 108.984 23.8835 111.669 26.5312C117.225 31.9385 121.253 38.8002 120.843 46.7434C120.619 51.1812 119.836 55.7308 117.971 59.8329C117.076 61.7721 115.734 64.0469 114.205 65.5385C113.235 66.4708 110.326 67.5523 110.774 64.8673C111.706 59.4972 114.801 55.0968 114.279 49.3911C113.906 45.2144 113.123 40.4411 110.625 36.9357C105.888 30.3723 96.4909 27.5754 88.6223 27.9856C79.1875 28.4704 71.5426 35.705 68.6339 44.394C68.0372 46.1467 65.7251 51.7778 63.5249 51.5168C59.0126 50.9201 62.518 38.4646 63.4503 36.3017C63.3384 36.5254 63.2638 36.7492 63.152 36.9729C60.728 42.7532 59.1617 49.0182 57.9311 55.246C49.7642 53.8662 46.2587 68.2236 44.4314 73.78C42.1193 80.7536 38.7258 87.3916 38.3528 94.8127C38.0545 100.779 40.8887 104.993 45.2891 108.089C50.7338 112.34 58.1548 114.615 64.0843 117.449C69.3424 119.947 74.7124 122.334 80.1944 124.348C82.9167 125.317 85.6763 126.101 88.4359 126.884C93.6567 128.413 97.908 125.914 101.227 121.961C105.404 117.001 108.387 111.147 111.296 105.404C114.13 99.7725 117.896 94.2533 119.798 88.2493C120.88 84.7812 120.283 81.7605 118.12 79.4484C118.12 79.4111 118.083 79.3365 118.046 79.2992C117.076 78.2551 116.069 77.3601 114.95 76.5024C118.381 70.5729 121.514 64.4571 123.341 57.8564C125.504 50.0251 124.646 41.7463 120.544 34.7354V34.6608ZM75.3837 41.4107C79.9706 34.6981 87.8019 31.6402 95.7451 33.4675C103.688 35.2948 109.767 42.1565 110.177 50.3234C110.401 54.9476 108.35 59.721 106.522 63.8604C105.627 65.8742 104.621 67.8133 103.614 69.7525C99.3624 67.6642 94.9992 65.9487 90.4869 64.3825C84.8185 62.4433 79.0383 60.8398 73.4072 58.826C72.1393 58.3785 70.8341 57.931 69.4916 57.4835C70.7968 51.8524 72.4749 45.7738 75.421 41.3734L75.3837 41.4107ZM112.265 84.4455C112.34 90.5614 106.821 97.3485 103.726 102.681C101.152 107.044 99.0641 112.042 95.1111 115.398C87.7273 121.626 76.577 117.486 68.5593 114.466C62.8163 112.34 57.2225 109.879 51.9271 106.858C48.6827 104.993 44.9535 102.98 43.5737 99.2504C40.3293 90.3376 46.93 80.2688 50.0252 72.1392C51.5915 67.9998 53.4188 62.7789 57.9311 61.0635C64.0097 58.7514 71.8037 62.1077 77.6958 63.4502C84.4083 64.9792 91.0463 66.9929 97.274 69.9763C101.041 71.7663 104.546 74.153 107.902 76.6142C111.072 78.9263 112.303 81.6113 112.303 84.4455H112.265Z" fill="#B5ADA3"/>
</g>
<g opacity="0.4" style="mix-blend-mode:screen">
<path d="M112.266 84.445C112.266 85.2281 112.192 86.0113 112.042 86.8317C113.982 87.13 115.846 87.8759 117.785 88.3979C118.382 88.5471 118.941 88.6963 119.501 88.8454C119.575 88.6217 119.687 88.3979 119.762 88.1742C120.843 84.706 120.247 81.6854 118.084 79.3733C118.084 79.336 118.046 79.2614 118.009 79.2241C117.562 78.7393 117.077 78.2918 116.592 77.8443C116.07 77.4714 115.548 77.0985 115.026 76.7629C113.161 77.1731 111.334 77.6206 109.507 78.0681C111.446 80.0446 112.229 82.2075 112.266 84.445Z" fill="#B5ADA3"/>
</g>
<g opacity="0.4" style="mix-blend-mode:screen">
<path d="M118.717 81.8354C119.015 81.8354 119.351 81.8354 119.649 81.7982C119.276 80.9031 118.754 80.0827 118.083 79.3369C118.083 79.2996 118.045 79.225 118.008 79.1877C117.822 79.0013 117.635 78.8148 117.449 78.6656C116.33 78.8521 115.211 79.0386 114.13 79.2623C113.048 79.4488 112.004 79.6725 110.96 79.8963C111.37 80.5302 111.668 81.2015 111.855 81.91C114.13 81.8727 116.405 81.9846 118.717 81.91V81.8354Z" fill="#B5ADA3"/>
</g>
<g opacity="0.4" style="mix-blend-mode:screen">
<path d="M116.145 86.05C117.45 86.3483 118.755 86.5721 120.098 86.7585C120.21 86.0873 120.284 85.416 120.284 84.7821C120.247 84.7821 120.172 84.7821 120.135 84.7821C117.525 84.8939 114.877 84.7075 112.266 84.7821C112.266 84.9685 112.266 85.155 112.229 85.3041C113.534 85.416 114.802 85.7144 116.182 86.0127L116.145 86.05Z" fill="#B5ADA3"/>
</g>
<g opacity="0.7" style="mix-blend-mode:multiply">
<path d="M92.8732 116.852C91.2324 117.747 89.4797 118.232 87.6524 118.455C88.6965 121.14 88.9576 124.049 89.1068 126.995C93.7682 128.039 97.6466 125.876 100.742 122.446C99.362 121.588 98.0195 120.842 97.3483 120.395C95.9312 119.425 94.1785 118.306 92.9105 116.889L92.8732 116.852Z" fill="#B5ADA3"/>
</g>
<g opacity="0.7" style="mix-blend-mode:multiply">
<path d="M43.5359 99.2133C42.9392 97.5352 42.6781 95.857 42.6781 94.1416C41.261 94.3654 39.8067 94.4772 38.315 94.5145C38.315 94.5891 38.315 94.6637 38.315 94.7383C38.0166 100.407 40.5898 104.509 44.6173 107.567C45.1021 106.038 45.6242 104.546 46.2955 103.129C45.1021 102.047 44.0952 100.817 43.5359 99.2506V99.2133Z" fill="#B5ADA3"/>
</g>
<g opacity="0.4" style="mix-blend-mode:screen">
<path d="M62.6296 56.2522C61.0634 55.8047 59.4598 55.2081 57.9309 55.0216C57.9309 55.0216 57.9309 55.0962 57.9309 55.1335C54.8729 54.6114 52.4862 56.2895 50.5844 58.9C52.076 60.2052 53.5677 61.5477 54.9848 62.9275C55.8052 62.1071 56.7748 61.4731 57.8936 61.0256C59.5717 60.3916 61.3617 60.1679 63.2263 60.2425C63.0026 58.9 62.8161 57.5575 62.6669 56.2149L62.6296 56.2522Z" fill="#B5ADA3"/>
</g>
<g opacity="0.6" style="mix-blend-mode:screen">
<path d="M57.2967 61.3244C57.4831 61.2125 57.6696 61.1379 57.8934 61.0633C58.3409 60.8769 58.8257 60.7277 59.3104 60.6531C58.5273 58.8258 57.7442 56.9985 57.2594 55.0966C55.6185 54.9847 54.2015 55.5068 52.9335 56.4391C53.9404 58.1918 55.9542 59.7208 57.2967 61.3617V61.3244Z" fill="#B5ADA3"/>
</g>
<g opacity="0.6" style="mix-blend-mode:screen">
<path d="M50.8464 58.565C50.8464 58.565 50.66 58.7888 50.5481 58.9379C51.816 60.0567 53.0839 61.2127 54.3146 62.4061C53.2331 61.0636 51.8533 59.9075 50.8091 58.565H50.8464Z" fill="#B5ADA3"/>
</g>
<g opacity="0.8" style="mix-blend-mode:multiply">
<path d="M120.545 34.6611C117.898 30.1488 113.46 25.9721 108.985 23.3617C106.113 21.6463 102.682 20.1546 99.4007 19.446C92.0542 17.7679 83.4025 18.6256 76.4662 21.5717C69.7537 24.3686 65.838 30.4471 63.1157 36.9359C60.6917 42.7162 59.1255 48.9812 57.8948 55.209C49.7279 53.8292 46.2225 68.1865 44.3952 73.743C42.0831 80.7166 38.6895 87.3546 38.3166 94.7757C38.0183 100.742 40.8524 104.956 45.2529 108.052C50.6975 112.303 58.1186 114.578 64.048 117.412C69.3062 119.91 74.6762 122.297 80.1581 124.311C82.8804 125.28 85.64 126.064 88.3996 126.847C93.6205 128.376 97.8718 125.877 101.191 121.924C105.367 116.964 108.351 111.11 111.26 105.367C114.094 99.7355 117.86 94.2163 119.762 88.2123C120.844 84.7441 120.247 81.7235 118.084 79.4114C118.084 79.3741 118.047 79.2995 118.009 79.2622C117.04 78.2181 116.033 77.3231 114.914 76.4653C118.345 70.5359 121.478 64.4201 123.305 57.8194C125.468 49.9881 124.61 41.7093 120.508 34.6984L120.545 34.6611ZM117.823 81.7981C119.352 84.6323 117.823 88.1377 116.667 90.8227C114.467 95.7453 111.67 100.444 109.246 105.217C106.785 110.103 104.211 114.951 101.004 119.388C99.6991 121.141 98.2074 122.968 96.4547 124.311C91.905 127.742 84.3721 123.901 79.7106 122.26C74.3033 120.395 69.0451 118.12 63.8615 115.771C58.4542 113.31 52.5621 111.296 47.4531 108.201C47.0429 108.014 46.6327 107.791 46.2598 107.567C44.5816 106.262 43.0527 104.77 41.8593 103.017C39.8828 100.108 39.6964 96.4165 39.9947 93.0229C40.5541 86.6833 43.4629 80.7166 45.5512 74.7872C47.826 68.2984 49.989 57.6329 57.7457 56.2904C62.5936 57.3719 67.4416 57.9686 72.2149 59.5348C77.6223 61.2875 82.955 63.1521 88.325 65.054C93.6205 66.9186 98.8041 68.8951 103.801 71.5055C105.367 72.3259 106.971 73.1464 108.5 74.0414C109.544 74.6753 110.737 75.0483 111.707 75.7941C113.907 77.4722 116.555 79.2995 117.898 81.7608L117.823 81.7981ZM69.4553 57.5211C70.7605 51.89 72.4387 45.8114 75.3847 41.411C79.9716 34.6984 87.8029 31.6405 95.7461 33.4678C103.689 35.2951 109.768 42.1568 110.178 50.3237C110.402 54.9479 108.351 59.7213 106.523 63.8607C105.628 65.8744 104.622 67.8136 103.615 69.7528C99.3634 67.6645 95.0003 65.949 90.488 64.3828C84.8196 62.4436 79.0393 60.84 73.4083 58.8263C72.1403 58.3788 70.8351 57.9313 69.4926 57.4838L69.4553 57.5211ZM121.515 58.9754C119.65 64.8303 116.816 70.2376 113.721 75.533C111.334 73.8549 108.724 72.4378 106.151 71.058C105.74 70.8343 105.33 70.6478 104.957 70.4613C106.039 68.1492 107.083 65.8372 108.052 63.4505C109.917 58.8636 111.595 53.9037 111.148 48.8693C110.439 41.038 104.099 34.7357 96.7903 32.5355C88.959 30.1861 81.0531 33.1694 75.9441 39.2853C72.0658 43.9468 69.157 50.7339 67.8891 56.999C65.0549 56.1786 62.0715 55.5446 59.1628 55.47C59.0509 55.4327 58.939 55.3954 58.8271 55.3581C59.834 51.3679 60.729 47.3031 61.9969 43.3874C63.7124 38.1293 65.9499 31.9388 69.9028 27.9486C73.1845 24.6296 77.7714 22.504 82.1719 21.3479C87.3554 20.0054 92.8001 19.8935 98.1328 20.7885C107.046 22.2429 114.429 28.2842 118.904 35.9291C122.969 42.9026 123.976 51.2933 121.552 59.0127L121.515 58.9754Z" fill="#534B3A"/>
</g>
<path opacity="0.8" d="M84.3343 74.1907C79.9712 72.438 74.079 73.5194 71.4686 77.6961C69.3057 81.1643 69.604 85.3037 73.0349 88.9956C69.7159 92.24 66.8817 95.7827 63.5627 99.0271C63.1525 99.4373 62.8542 99.9221 63.8984 100.295C68.8209 102.16 72.4009 103.875 77.5099 105.814C77.9574 106.001 78.5541 105.889 78.6287 105.404C79.188 101.115 79.8593 96.3794 80.3441 92.0908C90.7485 93.2469 93.7692 77.9945 84.297 74.228L84.3343 74.1907Z" fill="url(#paint10_radial_4_927)"/>
<g opacity="0.7" style="mix-blend-mode:multiply">
<path d="M84.3343 74.1907C79.9712 72.438 74.079 73.5194 71.4686 77.6961C69.3057 81.1643 69.604 85.3037 73.0349 88.9956C69.7159 92.24 66.8817 95.7827 63.5627 99.0271C63.1525 99.4373 62.8542 99.9221 63.8984 100.295C68.8209 102.16 72.4009 103.875 77.5099 105.814C77.9574 106.001 78.5541 105.889 78.6287 105.404C79.188 101.115 79.8593 96.3794 80.3441 92.0908C90.7485 93.2469 93.7692 77.9945 84.297 74.228L84.3343 74.1907ZM80.456 91.0466C80.456 91.0466 79.7474 90.7483 79.4118 90.9721C79.0762 93.3214 77.9574 100.966 77.398 103.8C73.6688 102.607 69.1938 100.705 65.6138 99.1017C68.5971 96.1183 70.1261 94.0673 72.9603 90.9348C74.1909 89.3312 75.0486 88.8837 74.7503 88.66C71.9907 86.497 70.9838 83.9985 71.8042 80.5676C72.8111 76.3163 78.3676 74.3772 82.0222 75.0484C85.826 75.7197 88.3618 79.0759 88.511 82.8051C88.6975 87.1683 84.7818 91.4941 80.456 91.0093V91.0466Z" fill="#534B3A"/>
</g>
<path d="M63.3765 47.8249C63.3765 47.8249 65.1665 34.6981 70.984 29.5892C76.7643 24.4802 84.6701 19.3712 100.407 23.2495C116.145 27.1279 118.904 41.4853 119.463 46.4451C120.023 51.4049 118.084 59.0125 116.033 61.6229C116.033 61.6229 119.091 54.7239 118.233 46.7061C117.412 38.6884 113.31 28.3212 98.6173 25.4498C80.941 21.9816 68.6719 26.121 63.4138 47.8249H63.3765Z" fill="url(#paint11_radial_4_927)" style="mix-blend-mode:screen"/>
<path d="M53.7182 108.274C53.7182 108.274 75.8323 118.492 82.694 119.35C89.593 120.171 94.0307 120.73 100.109 110.773C106.188 100.816 110.066 92.5373 111.707 89.7777C113.348 87.0181 115.623 81.9091 107.866 76.6137C107.866 76.6137 112.266 81.4989 111.409 84.2585C110.588 87.0181 105.89 97.2361 100.93 105.254C95.9699 113.272 93.0238 118.008 87.1317 118.53C80.4938 119.089 53.7182 108.312 53.7182 108.312V108.274Z" fill="url(#paint12_radial_4_927)" style="mix-blend-mode:screen"/>
<path d="M42.6797 94.1408C42.6797 94.1408 42.1204 89.1437 47.9752 76.4271C53.8673 63.7106 54.4267 60.7645 61.5867 60.056C68.7841 59.3102 88.4742 65.9481 97.8718 70.1994C97.8718 70.1994 75.0491 63.375 69.9028 62.48C64.7565 61.5477 59.7594 61.1748 55.9184 65.426C52.04 69.6773 42.9035 87.018 42.6797 94.1781V94.1408Z" fill="white"/>
<path d="M83.439 72.848C80.4929 72.0276 75.1975 71.7666 71.3937 76.801C69.6783 79.0758 69.7528 81.7235 70.1258 83.6254C70.1258 82.9541 70.2004 82.0964 70.3495 81.0149C71.3564 74.8245 80.6794 71.4309 86.0867 75.7568C91.5313 80.0826 89.0328 87.0935 89.0328 87.0935C93.1722 79.6351 86.3477 73.6312 83.4017 72.8107L83.439 72.848Z" fill="white"/>
<path d="M78.6288 105.404L80.3442 92.0912C80.3442 92.0912 84.148 92.9489 87.9145 89.0705C87.9145 89.0705 85.6024 93.1353 81.2019 92.7624L78.5915 105.404H78.6288Z" fill="white"/>
</g>
<defs>
<linearGradient id="paint0_linear_4_927" x1="83.2521" y1="-5.241" x2="83.2521" y2="169.807" gradientUnits="userSpaceOnUse">
<stop offset="0.39" stop-color="#FDBE50"/>
<stop offset="0.74" stop-color="#ED8C37"/>
</linearGradient>
<linearGradient id="paint1_linear_4_927" x1="82.431" y1="156.456" x2="82.431" y2="16.6489" gradientUnits="userSpaceOnUse">
<stop offset="0.05" stop-color="#AD5D29"/>
<stop offset="0.08" stop-color="#651103"/>
</linearGradient>
<radialGradient id="paint2_radial_4_927" cx="0" cy="0" r="1" gradientUnits="userSpaceOnUse" gradientTransform="translate(34.0633 0.799137) scale(122.019)">
<stop stop-color="#BBBBBB"/>
<stop offset="0.68" stop-color="#515151"/>
<stop offset="1" stop-color="#333333"/>
</radialGradient>
<linearGradient id="paint3_linear_4_927" x1="32.9067" y1="33.0577" x2="54.2004" y2="56.0668" gradientUnits="userSpaceOnUse">
<stop offset="0.03" stop-color="white"/>
<stop offset="0.19" stop-color="#BBBBBB"/>
<stop offset="0.39" stop-color="#6C6C6C"/>
<stop offset="0.95" stop-color="#373737"/>
</linearGradient>
<linearGradient id="paint4_linear_4_927" x1="72.1004" y1="15.2317" x2="95.2587" y2="39.8071" gradientUnits="userSpaceOnUse">
<stop stop-color="#BBBBBB"/>
<stop offset="0.31" stop-color="#6C6C6C"/>
<stop offset="0.8" stop-color="#373737"/>
</linearGradient>
<radialGradient id="paint5_radial_4_927" cx="0" cy="0" r="1" gradientUnits="userSpaceOnUse" gradientTransform="translate(79.9691 36.8616) scale(115.232 115.232)">
<stop offset="0.5" stop-color="white"/>
<stop offset="0.87" stop-color="#373737"/>
<stop offset="1" stop-color="#161616"/>
</radialGradient>
<radialGradient id="paint6_radial_4_927" cx="0" cy="0" r="1" gradientUnits="userSpaceOnUse" gradientTransform="translate(133.969 160.409) scale(83.4966 83.4966)">
<stop stop-color="#BBBBBB"/>
<stop offset="0.24" stop-color="#6C6C6C"/>
<stop offset="0.79" stop-color="#373737"/>
</radialGradient>
<radialGradient id="paint7_radial_4_927" cx="0" cy="0" r="1" gradientUnits="userSpaceOnUse" gradientTransform="translate(35.1872 163.077) rotate(175.54) scale(83.3847)">
<stop stop-color="#BBBBBB"/>
<stop offset="0.24" stop-color="#6C6C6C"/>
<stop offset="0.79" stop-color="#373737"/>
</radialGradient>
<radialGradient id="paint8_radial_4_927" cx="0" cy="0" r="1" gradientUnits="userSpaceOnUse" gradientTransform="translate(74.8626 56.5515) scale(67.9831 67.9831)">
<stop stop-color="#EBE9E1"/>
<stop offset="0.4" stop-color="#A79780"/>
<stop offset="1" stop-color="#594F3E"/>
</radialGradient>
<radialGradient id="paint9_radial_4_927" cx="0" cy="0" r="1" gradientUnits="userSpaceOnUse" gradientTransform="translate(86.2723 26.2697) scale(55.3412)">
<stop stop-color="#EBE9E1"/>
<stop offset="0.4" stop-color="#A79780"/>
<stop offset="1" stop-color="#594F3E"/>
</radialGradient>
<radialGradient id="paint10_radial_4_927" cx="0" cy="0" r="1" gradientUnits="userSpaceOnUse" gradientTransform="translate(100.482 102.122) scale(38.075)">
<stop stop-color="white"/>
<stop offset="0.32" stop-color="#B1B1B1"/>
<stop offset="1"/>
</radialGradient>
<radialGradient id="paint11_radial_4_927" cx="0" cy="0" r="1" gradientUnits="userSpaceOnUse" gradientTransform="translate(89.3316 22.4291) scale(44.079 44.079)">
<stop stop-color="#EBE9E1"/>
<stop offset="0.4" stop-color="#A79780"/>
<stop offset="1"/>
</radialGradient>
<radialGradient id="paint12_radial_4_927" cx="0" cy="0" r="1" gradientUnits="userSpaceOnUse" gradientTransform="translate(102.31 124.869) scale(40.0515 40.0515)">
<stop stop-color="#EBE9E1"/>
<stop offset="0.4" stop-color="#A79780"/>
<stop offset="1"/>
</radialGradient>
<clipPath id="clip0_4_927">
<rect width="165" height="177" fill="white"/>
</clipPath>
</defs>
</svg>
