<svg width="38" height="40" viewBox="0 0 38 40" fill="none" xmlns="http://www.w3.org/2000/svg">
<path d="M15.7667 22.0582C15.7271 21.5371 15.6996 21.0147 15.6431 20.4953C15.6052 20.146 15.687 19.8604 15.98 19.6639C16.2739 19.4666 16.5703 19.5039 16.8726 19.6728C18.5199 20.5942 20.0993 21.6169 21.5712 22.8064C22.2172 23.3284 22.8956 23.8092 23.5521 24.3185C26.1417 26.3283 26.6843 29.9669 24.7613 32.6273C23.5634 34.2849 22.3306 35.9179 21.0838 37.5386C19.6786 39.3659 17.1446 39.7338 15.2831 38.3695C12.9215 36.6385 10.5866 34.8709 8.24019 33.1187C6.36183 31.7161 4.486 30.311 2.60511 28.9119C1.1058 27.797 0.223333 26.3168 0.0335997 24.4496C-0.121981 22.9184 0.262966 21.5159 1.1838 20.2805C2.95844 17.9002 4.74277 15.5271 6.52416 13.1515C7.3282 12.0795 8.11665 10.9952 8.94346 9.94152C10.5246 7.92744 13.4279 7.53277 15.4791 9.05924C17.4443 10.5216 19.3889 12.012 21.3381 13.4965C22.1004 14.077 22.1898 15.0098 21.5734 15.747C20.9924 16.4417 20.3603 17.0829 19.6368 17.6286C19.0255 18.0899 18.3964 18.1273 17.7323 17.7356C16.085 16.7646 14.4381 15.7924 12.7929 14.8176C12.5349 14.6648 12.2655 14.5833 11.9682 14.6466C11.5643 14.7327 11.2818 14.9708 11.1671 15.3735C11.0482 15.7902 11.1629 16.1518 11.4694 16.4569C12.4582 17.4423 13.0914 18.6306 13.4237 19.9835C13.8373 21.6695 13.6653 23.322 13.113 24.9474C12.8098 25.8394 12.3987 26.6818 11.9164 27.489C11.6904 27.8671 11.6676 28.2511 11.8978 28.6318C12.3081 29.3099 13.2622 29.3019 13.6826 28.6097C14.3922 27.441 14.9534 26.2048 15.3176 24.8816C15.5719 23.9577 15.7131 23.0173 15.7658 22.057L15.7667 22.0582Z" fill="white"/>
<path d="M37.5596 14.8898C37.5507 15.4521 37.3787 15.9575 37.0422 16.4065C35.1082 18.985 33.1742 21.5635 31.2398 24.1416C30.3982 25.2632 28.8209 25.4911 27.7111 24.6533C26.5879 23.8055 26.359 22.2157 27.2035 21.0869C29.1426 18.4948 31.0833 15.9036 33.0262 13.3145C33.6793 12.4441 34.8308 12.0999 35.8574 12.4573C36.8892 12.8163 37.5768 13.7983 37.5596 14.8898Z" fill="white"/>
<path d="M23.6179 21.1396C22.6676 21.1022 21.9192 20.646 21.4541 19.7446C21.1649 19.1841 21.2779 18.6078 21.7126 18.149C22.173 17.6639 22.6368 17.1797 23.0609 16.6633C23.4834 16.1481 23.6782 15.5264 23.7052 14.8597C23.7187 14.5291 23.8173 14.2414 24.0155 13.9783C25.1767 12.4344 26.3252 10.8807 27.4969 9.34536C28.169 8.46479 29.0788 8.12996 30.1477 8.40326C31.2017 8.67273 31.8266 9.39502 31.9969 10.4784C32.1108 11.2024 31.924 11.87 31.4859 12.4556C29.5814 15.0018 27.6765 17.5477 25.7636 20.088C25.2441 20.778 24.535 21.1183 23.6179 21.1396Z" fill="white"/>
<path d="M21.2828 2.58848C21.2786 3.10198 21.1268 3.56709 20.8237 3.97406C19.8552 5.27519 18.8817 6.57293 17.9052 7.86812C17.6543 8.20125 17.2892 8.23987 16.9443 7.96827C16.225 7.40173 15.4559 6.93025 14.573 6.67138C14.3175 6.59669 14.0561 6.54068 13.796 6.48296C13.2837 6.36881 13.0859 5.86592 13.4022 5.44197C14.5237 3.93799 15.6423 2.43189 16.7794 0.940215C17.5814 -0.111384 18.9453 -0.294289 20.0285 0.459399C20.647 0.889714 21.1184 1.41382 21.2432 2.18872C21.2647 2.3207 21.2698 2.45523 21.2828 2.58848Z" fill="white"/>
<path d="M26.7018 6.61547C26.693 7.24057 26.5243 7.72478 26.2009 8.15595C25.2531 9.41931 24.3074 10.6839 23.3587 11.9469C23.0703 12.3305 22.7461 12.3746 22.3607 12.0831C21.3842 11.3443 20.409 10.6033 19.4346 9.86151C19.0927 9.60137 19.0417 9.26356 19.2976 8.92109C20.2555 7.63906 21.2093 6.35321 22.1798 5.08093C23.0117 3.99029 24.4023 3.81503 25.5099 4.62303C26.0559 5.02152 26.4893 5.4913 26.6352 6.17539C26.6719 6.34727 26.6883 6.52338 26.7018 6.61547Z" fill="white"/>
</svg>
