<svg width="54" height="35" viewBox="0 0 54 35" fill="none" xmlns="http://www.w3.org/2000/svg">
<path d="M34.1014 0C34.6764 0.129691 35.0884 0.477288 35.4595 0.917772C37.6906 3.56535 39.9341 6.20299 42.1752 8.84297C42.801 9.58023 43.2839 10.3882 43.6155 11.3019C44.1107 12.666 44.6734 14.0061 45.1929 15.362C45.2774 15.5823 45.3914 15.6483 45.6208 15.6582C47.6178 15.7429 49.6154 15.8317 51.6112 15.9392C52.4416 15.9836 53.0923 16.6449 53.1502 17.4458C53.2117 18.2918 52.6934 19.0185 51.8713 19.2013C51.6148 19.2586 51.3441 19.2633 51.0793 19.275C49.2206 19.3591 47.3613 19.4391 45.502 19.5203C45.0002 19.5425 44.499 19.5665 43.9972 19.5869C43.1314 19.622 42.4973 19.2627 42.1084 18.4933C41.4435 17.1789 40.7804 15.8638 40.1155 14.5494C40.0729 14.4647 40.0233 14.3835 39.9606 14.2707C37.6303 15.9707 35.3206 17.6556 32.9891 19.3567C33.2686 19.7318 33.5299 20.0829 33.7923 20.434C35.3821 22.5652 36.9725 24.6957 38.5623 26.8263C39.7857 28.4661 38.9861 30.613 36.9731 31.0337C32.7568 31.9152 28.537 32.7804 24.316 33.6409C23.1145 33.8863 21.9774 33.1666 21.689 32.0163C21.4012 30.8683 22.0719 29.714 23.2528 29.3722C25.9537 28.5905 28.6593 27.8223 31.3626 27.0477C31.4081 27.0348 31.4519 27.0185 31.5506 26.9858C31.3662 26.7848 31.2054 26.609 31.0435 26.4343C29.8674 25.1631 28.6659 23.9135 27.5222 22.6136C26.5134 21.4663 25.6026 20.2412 25.0081 18.8187C24.5855 17.808 24.491 16.7945 25.0506 15.8095C25.2498 15.4596 25.5134 15.1278 25.8095 14.8526C28.6729 12.1922 31.5494 9.54576 34.4223 6.89526C34.5293 6.79654 34.6351 6.69547 34.7657 6.57337C34.6628 6.432 34.5677 6.29997 34.4708 6.16969C33.9696 5.49495 33.4578 4.82721 32.972 4.14195C32.8136 3.91879 32.6386 3.82707 32.3668 3.81947C30.3095 3.7593 28.2521 3.68686 26.1954 3.61734C25.8408 3.60566 25.4868 3.59514 25.1328 3.57469C24.2339 3.52329 23.5388 2.83569 23.5176 1.98218C23.4951 1.08544 24.1488 0.331823 25.0713 0.27574C26.1718 0.208558 27.2758 0.197458 28.378 0.164159C29.8248 0.120929 31.2722 0.080619 32.719 0.0368043C32.7864 0.0350518 32.8532 0.0134365 32.9205 0.00116839C33.3147 0.00116839 33.7084 0.00116839 34.1026 0.00116839L34.1014 0Z" fill="white"/>
<path d="M0 20.446C2.48343 20.273 4.96744 20.0984 7.45087 19.9278C9.35569 19.7969 11.2605 19.6725 13.1659 19.5451C13.1854 19.544 13.2055 19.5434 13.225 19.5434C13.4762 19.5416 13.8273 19.4423 13.9508 19.5656C14.0826 19.6976 14.0075 20.0394 14.0087 20.29C14.0123 21.2632 14.004 22.2365 14.0146 23.2092C14.017 23.4376 13.9402 23.4814 13.7203 23.4657C11.0117 23.2717 8.30133 23.0906 5.59273 22.8996C3.7275 22.7687 1.86405 22.6273 0 22.4906C0 21.8089 0 21.1277 0 20.446Z" fill="white"/>
<path d="M22.3438 18.0812C22.3574 20.0768 23.251 21.6676 24.4136 23.1783C24.3332 23.2472 24.2658 23.3132 24.1907 23.3693C19.5111 26.8523 14.8321 30.337 10.1489 33.8159C8.86881 34.767 7.08041 34.2377 6.64188 32.7725C6.38006 31.898 6.55264 31.0895 7.26421 30.4848C8.60108 29.3497 9.97104 28.2538 11.325 27.138C14.9249 24.1714 18.5235 21.2037 22.1234 18.2372C22.1748 18.1951 22.2321 18.16 22.3438 18.0818V18.0812Z" fill="white"/>
<path d="M47.5109 1.49326C49.8779 1.4915 51.8418 3.41351 51.8418 5.7316C51.8418 8.15251 49.911 10.0412 47.437 10.0424C45.1315 10.043 43.1906 8.09934 43.19 5.78943C43.1894 3.40124 45.1061 1.49501 47.5109 1.49326Z" fill="white"/>
<path d="M25.2862 9.48319C25.2862 10.0475 25.2791 10.6124 25.2898 11.1768C25.2939 11.3982 25.2165 11.4613 24.9942 11.4449C22.9529 11.2942 20.911 11.1499 18.869 11.0097C16.7284 10.8625 14.5877 10.7223 12.4471 10.5786C12.1327 10.5575 11.8194 10.5283 11.5044 10.5137C11.336 10.5061 11.2574 10.4483 11.2604 10.2683C11.2686 9.74315 11.2734 9.21679 11.2586 8.6916C11.2521 8.46143 11.3596 8.41995 11.557 8.40651C13.57 8.27332 15.583 8.13486 17.5954 7.99466C20.0103 7.82641 22.4251 7.65524 24.84 7.48407C25.2915 7.45194 25.2915 7.44902 25.2915 7.90644C25.2915 8.43222 25.2915 8.95741 25.2915 9.48319C25.2898 9.48319 25.2874 9.48319 25.2856 9.48319H25.2862Z" fill="white"/>
<path d="M4.65213 16.473C4.65213 15.8415 4.64622 15.2111 4.66218 14.5808C4.66336 14.527 4.80757 14.4382 4.89031 14.4318C6.05815 14.3424 7.22716 14.2647 8.39559 14.1835C10.5268 14.0357 12.658 13.8879 14.7891 13.7401C15.9771 13.6578 17.1656 13.5801 18.3529 13.4895C18.5911 13.4714 18.6815 13.5263 18.6792 13.7822C18.6679 14.9114 18.6727 16.0407 18.6821 17.17C18.6839 17.3978 18.6254 17.4685 18.3783 17.4504C16.1987 17.292 14.0179 17.1501 11.837 17.0005C9.50964 16.841 7.18225 16.6786 4.85544 16.5162C4.79811 16.5121 4.74197 16.4929 4.65213 16.473Z" fill="white"/>
</svg>
