<svg width="35" height="39" viewBox="0 0 35 39" fill="none" xmlns="http://www.w3.org/2000/svg">
<path d="M4.12723 19.195C4.12723 13.7807 7.50794 9.13504 12.2862 7.22188L14.7244 2.36693C6.41281 3.53748 0 10.6371 0 19.195C0 26.981 5.30826 33.5607 12.5252 35.5655L12.9942 31.4288C7.84509 29.7065 4.12723 24.8731 4.12723 19.195Z" fill="white"/>
<path d="M34.2938 19.195C34.2938 11.4106 28.9879 4.83218 21.7733 2.82581L21.2938 6.95951C26.4459 8.68012 30.1666 13.5149 30.1666 19.195C30.1666 24.5778 26.8252 29.2007 22.091 31.1344L19.5853 36.0208C27.8891 34.8436 34.2938 27.7474 34.2938 19.195Z" fill="white"/>
<path d="M26.9615 17.1351C27.124 16.8181 27.1087 16.47 26.921 16.1669C26.7335 15.8638 26.4005 15.743 26.0416 15.743H18.1972L19.8859 1.18909C19.9434 0.695684 19.6349 0.184501 19.1543 0.0430887C19.0552 0.0139367 18.9547 0 18.8555 0C18.4745 0 18.1144 0.214932 17.9371 0.567952L7.32841 21.7001C7.16925 22.017 7.18679 22.4391 7.37484 22.7403C7.56301 23.0414 7.89474 23.2867 8.25213 23.2867H15.9931L14.4062 37.2928C14.3508 37.7843 14.6578 38.1976 15.1358 38.3393C15.234 38.3685 15.3334 38.3764 15.4316 38.3764C15.8118 38.3764 16.1719 38.1671 16.3516 37.8166L26.9615 17.1351Z" fill="white"/>
</svg>
